<svg width="360" height="82" viewBox="0 0 360 82" fill="none" xmlns="http://www.w3.org/2000/svg">
<rect width="360" height="82" rx="8" fill="white"/>
<rect x="12" y="12" width="40" height="40" rx="20" fill="#F84D3A"/>
<path d="M31.9998 32.0001C34.5782 32.0001 36.6665 29.9117 36.6665 27.3334C36.6665 24.7551 34.5782 22.6667 31.9998 22.6667C29.4215 22.6667 27.3332 24.7551 27.3332 27.3334C27.3332 29.9117 29.4215 32.0001 31.9998 32.0001ZM31.9998 34.3334C28.8848 34.3334 22.6665 35.8967 22.6665 39.0001V40.1667C22.6665 40.8084 23.1915 41.3334 23.8332 41.3334H40.1665C40.8082 41.3334 41.3332 40.8084 41.3332 40.1667V39.0001C41.3332 35.8967 35.1148 34.3334 31.9998 34.3334Z" fill="white"/>
<path d="M67.1406 19.6875H68.2812L66.4219 31H65.2812L67.1406 19.6875ZM60.3281 26.75H68.7812L68.5938 27.875H60.1406L60.3281 26.75ZM63.1562 19.6875H64.2969L62.4375 31H61.2969L63.1562 19.6875ZM60.9844 22.8125H69.4531L69.2656 23.9375H60.8125L60.9844 22.8125ZM78.5625 23.25C78.4583 22.7396 78.2526 22.3047 77.9453 21.9453C77.638 21.5859 77.263 21.3125 76.8203 21.125C76.3776 20.9375 75.9062 20.8438 75.4062 20.8438C74.7188 20.8438 74.099 21.0182 73.5469 21.3672C72.9948 21.7161 72.5599 22.2292 72.2422 22.9062C71.9245 23.5833 71.7656 24.3958 71.7656 25.3438C71.7656 26.2917 71.9245 27.1042 72.2422 27.7812C72.5599 28.4583 72.9948 28.9714 73.5469 29.3203C74.099 29.6693 74.7188 29.8438 75.4062 29.8438C75.9062 29.8438 76.375 29.75 76.8125 29.5625C77.25 29.375 77.625 29.1016 77.9375 28.7422C78.25 28.3828 78.4583 27.9531 78.5625 27.4531H79.9688C79.8333 28.2031 79.5521 28.8594 79.125 29.4219C78.6979 29.9844 78.1641 30.4141 77.5234 30.7109C76.8828 31.0078 76.1771 31.1562 75.4062 31.1562C74.4375 31.1562 73.5755 30.9193 72.8203 30.4453C72.0651 29.9714 71.474 29.2943 71.0469 28.4141C70.6198 27.5339 70.4062 26.5104 70.4062 25.3438C70.4062 24.1667 70.6198 23.1406 71.0469 22.2656C71.474 21.3906 72.0651 20.7161 72.8203 20.2422C73.5755 19.7682 74.4375 19.5312 75.4062 19.5312C76.1667 19.5312 76.8698 19.6797 77.5156 19.9766C78.1615 20.2734 78.6979 20.7005 79.125 21.2578C79.5521 21.8151 79.8333 22.4792 79.9688 23.25H78.5625ZM80.9531 31L85.0938 19.6875H86.5781L90.7188 31H89.2344L85.875 21.5156H85.7812L82.4219 31H80.9531ZM88.7344 26.5781V27.8125H82.9375V26.5781H88.7344ZM93.9375 19.6875L97.75 29H97.8906L101.703 19.6875H103.391V31H102.062V22.4531H101.953L98.4375 31H97.1875L93.6719 22.4531H93.5781V31H92.25V19.6875H93.9375ZM114.703 19.6875V27.1719C114.703 27.9427 114.521 28.6328 114.156 29.2422C113.792 29.8516 113.276 30.3307 112.609 30.6797C111.943 31.0286 111.172 31.2031 110.297 31.2031C109.422 31.2031 108.651 31.0286 107.984 30.6797C107.318 30.3307 106.802 29.8516 106.438 29.2422C106.073 28.6328 105.891 27.9427 105.891 27.1719V19.6875H107.297V27.0625C107.297 27.6042 107.419 28.0885 107.664 28.5156C107.909 28.9427 108.258 29.2786 108.711 29.5234C109.164 29.7682 109.693 29.8906 110.297 29.8906C110.911 29.8906 111.445 29.7682 111.898 29.5234C112.352 29.2786 112.698 28.9427 112.938 28.5156C113.177 28.0885 113.297 27.6042 113.297 27.0625V19.6875H114.703ZM123.375 22.5312C123.333 22.1667 123.203 21.8516 122.984 21.5859C122.766 21.3203 122.474 21.1198 122.109 20.9844C121.745 20.849 121.333 20.7812 120.875 20.7812C120.385 20.7812 119.953 20.8594 119.578 21.0156C119.203 21.1719 118.911 21.3906 118.703 21.6719C118.495 21.9531 118.391 22.276 118.391 22.6406C118.391 23.1615 118.604 23.5599 119.031 23.8359C119.458 24.112 119.974 24.3281 120.578 24.4844L121.703 24.7969C122.578 25.0156 123.331 25.3594 123.961 25.8281C124.591 26.2969 124.906 26.9948 124.906 27.9219C124.906 28.5365 124.745 29.0938 124.422 29.5938C124.099 30.0938 123.628 30.487 123.008 30.7734C122.388 31.0599 121.651 31.2031 120.797 31.2031C119.995 31.2031 119.294 31.0729 118.695 30.8125C118.096 30.5521 117.628 30.1849 117.289 29.7109C116.951 29.237 116.76 28.6875 116.719 28.0625H118.156C118.198 28.4688 118.341 28.8099 118.586 29.0859C118.831 29.362 119.146 29.5703 119.531 29.7109C119.917 29.8516 120.339 29.9219 120.797 29.9219C121.318 29.9219 121.786 29.8385 122.203 29.6719C122.62 29.5052 122.945 29.2656 123.18 28.9531C123.414 28.6406 123.531 28.2865 123.531 27.8906C123.531 27.5469 123.435 27.2578 123.242 27.0234C123.049 26.7891 122.794 26.599 122.477 26.4531C122.159 26.3073 121.766 26.1667 121.297 26.0312L119.906 25.6562C118.979 25.3854 118.268 25.0104 117.773 24.5312C117.279 24.0521 117.031 23.4427 117.031 22.7031C117.031 22.0781 117.203 21.526 117.547 21.0469C117.891 20.5677 118.357 20.1953 118.945 19.9297C119.534 19.6641 120.193 19.5312 120.922 19.5312C121.641 19.5312 122.286 19.6615 122.859 19.9219C123.432 20.1823 123.885 20.5391 124.219 20.9922C124.552 21.4453 124.729 21.9583 124.75 22.5312H123.375ZM138.938 26.5H126.219V25.4844H138.938V26.5ZM133.281 29.3438H132.062V26.1094H133.281V29.3438ZM137.281 23.8906H127.875V19.0625H137.281V23.8906ZM129.078 22.9062H136.062V20.0312H129.078V22.9062ZM137.516 31.9688H127.844V30.9375H137.516V31.9688ZM129.078 31.2969H127.844V27.9688H129.078V31.2969ZM144.609 19.3906C145.339 19.3906 145.984 19.5286 146.547 19.8047C147.109 20.0807 147.549 20.4661 147.867 20.9609C148.185 21.4557 148.344 22.0208 148.344 22.6562C148.344 23.2917 148.185 23.8568 147.867 24.3516C147.549 24.8464 147.109 25.2318 146.547 25.5078C145.984 25.7839 145.339 25.9219 144.609 25.9219C143.891 25.9219 143.245 25.7839 142.672 25.5078C142.099 25.2318 141.654 24.8464 141.336 24.3516C141.018 23.8568 140.859 23.2917 140.859 22.6562C140.859 22.0208 141.018 21.4557 141.336 20.9609C141.654 20.4661 142.099 20.0807 142.672 19.8047C143.245 19.5286 143.891 19.3906 144.609 19.3906ZM144.609 20.4688C144.12 20.4688 143.682 20.5599 143.297 20.7422C142.911 20.9245 142.609 21.1823 142.391 21.5156C142.172 21.849 142.062 22.2292 142.062 22.6562C142.062 23.0833 142.172 23.4609 142.391 23.7891C142.609 24.1172 142.911 24.375 143.297 24.5625C143.682 24.75 144.12 24.8438 144.609 24.8438C145.099 24.8438 145.536 24.75 145.922 24.5625C146.307 24.375 146.607 24.1172 146.82 23.7891C147.034 23.4609 147.141 23.0833 147.141 22.6562C147.141 22.2292 147.034 21.849 146.82 21.5156C146.607 21.1823 146.307 20.9245 145.922 20.7422C145.536 20.5599 145.099 20.4688 144.609 20.4688ZM151.453 32.2969H150.234V18.375H151.453V32.2969ZM140.141 28.1875C141.297 28.1875 142.346 28.1771 143.289 28.1562C144.232 28.1354 145.234 28.0911 146.297 28.0234C147.359 27.9557 148.365 27.8542 149.312 27.7188L149.406 28.625C148.427 28.8021 147.411 28.9349 146.359 29.0234C145.307 29.112 144.32 29.1693 143.398 29.1953C142.477 29.2214 141.448 29.2344 140.312 29.2344L140.141 28.1875Z" fill="black"/>
<path d="M69.9609 45.6133H60.4219V44.8281H69.9609V45.6133ZM69.0469 38.3477H61.2656V37.5859H69.0469V38.3477ZM69.0234 42.7422H61.2891V41.9922H69.0234V42.7422ZM63.832 42.0859H62.918V38.2773H63.832V42.0859ZM67.3945 42.0859H66.4922V38.2773H67.3945V42.0859ZM79.3828 44.207H78.4805V36.543H79.3828V44.207ZM79.6875 46.7266H72.5508V45.9531H79.6875V46.7266ZM73.4766 46.3398H72.5508V43.6094H73.4766V46.3398ZM72.1875 41.957C73.25 41.957 74.1543 41.9316 74.9004 41.8809C75.6465 41.8301 76.4102 41.7383 77.1914 41.6055L77.2852 42.3672C76.4883 42.5 75.7129 42.5918 74.959 42.6426C74.2051 42.6934 73.2812 42.7227 72.1875 42.7305H71.3438V41.957H72.1875ZM76.0781 40.293H72.2344V42.2031H71.3438V39.5664H75.1641V38.0312H71.3203V37.2812H76.0781V40.293ZM87.3516 41.0547H85.3008V40.2695H87.3516V41.0547ZM84.0938 39.5312C84.0938 40.2422 83.9941 40.9375 83.7949 41.6172C83.5957 42.2969 83.3105 42.9043 82.9395 43.4395C82.5684 43.9746 82.1328 44.3945 81.6328 44.6992L81.0469 44.0078C81.5156 43.7344 81.9258 43.3594 82.2773 42.8828C82.6289 42.4062 82.8984 41.877 83.0859 41.2949C83.2734 40.7129 83.3672 40.125 83.3672 39.5312V37.5156H84.0938V39.5312ZM84.2578 39.4961C84.2578 40.0508 84.3457 40.6055 84.5215 41.1602C84.6973 41.7148 84.9512 42.2207 85.2832 42.6777C85.6152 43.1348 86.0039 43.4961 86.4492 43.7617L85.9219 44.4766C85.4297 44.1797 85.0059 43.7676 84.6504 43.2402C84.2949 42.7129 84.0234 42.125 83.8359 41.4766C83.6484 40.8281 83.5547 40.168 83.5547 39.4961V37.5156H84.2578V39.4961ZM90.0938 46.9492H89.2031V36.5312H90.0938V46.9492ZM87.9375 46.4219H87.0703V36.7539H87.9375V46.4219ZM96.5742 38.0664C96.5742 38.7852 96.3711 39.457 95.9648 40.082C95.5586 40.707 95.0332 41.2344 94.3887 41.6641C93.7441 42.0938 93.0664 42.3906 92.3555 42.5547L91.9336 41.7812C92.5508 41.6562 93.1562 41.4121 93.75 41.0488C94.3438 40.6855 94.8281 40.2402 95.2031 39.7129C95.5781 39.1855 95.7656 38.6367 95.7656 38.0664V37.2695H96.5742V38.0664ZM96.7266 38.0664C96.7266 38.6289 96.918 39.1758 97.3008 39.707C97.6836 40.2383 98.1738 40.6875 98.7715 41.0547C99.3691 41.4219 99.9727 41.6641 100.582 41.7812L100.16 42.5547C99.457 42.3906 98.7832 42.0957 98.1387 41.6699C97.4941 41.2441 96.9668 40.7168 96.5566 40.0879C96.1465 39.459 95.9414 38.7852 95.9414 38.0664V37.2695H96.7266V38.0664ZM101.074 45.5312H91.5352V44.7695H101.074V45.5312ZM110.414 37.2109C110.414 38.0703 110.213 38.8516 109.811 39.5547C109.408 40.2578 108.832 40.8594 108.082 41.3594C107.332 41.8594 106.441 42.25 105.41 42.5312L105.035 41.8047C105.949 41.5625 106.736 41.2363 107.396 40.8262C108.057 40.416 108.564 39.9375 108.92 39.3906C109.275 38.8438 109.453 38.25 109.453 37.6094V37.2109H110.414ZM109.969 37.9609H105.586V37.2109H109.969V37.9609ZM113.52 42.4258H112.605V36.543H113.52V42.4258ZM113.52 46.8086H106.746V42.9297H113.52V46.8086ZM107.648 46.0586H112.617V43.668H107.648V46.0586ZM121.617 39.2734H119.578V38.5117H121.617V39.2734ZM118.219 38.0664C118.219 38.5977 118.123 39.1211 117.932 39.6367C117.74 40.1523 117.463 40.6172 117.1 41.0312C116.736 41.4453 116.309 41.7695 115.816 42.0039L115.301 41.3008C115.746 41.0977 116.133 40.8223 116.461 40.4746C116.789 40.127 117.041 39.7422 117.217 39.3203C117.393 38.8984 117.48 38.4805 117.48 38.0664V36.9766H118.219V38.0664ZM118.371 38.1133C118.371 38.4961 118.455 38.877 118.623 39.2559C118.791 39.6348 119.033 39.9766 119.35 40.2812C119.666 40.5859 120.035 40.8242 120.457 40.9961L119.965 41.6875C119.48 41.4844 119.066 41.2012 118.723 40.8379C118.379 40.4746 118.119 40.0566 117.943 39.584C117.768 39.1113 117.68 38.6211 117.68 38.1133V36.9766H118.371V38.1133ZM124.137 42.1094H123.258V36.543H124.137V42.1094ZM122.086 42.0273H121.195V36.7422H122.086V42.0273ZM124.137 44.9922H118.16V46.5273H117.246V44.2891H123.234V43.3047H117.223V42.5664H124.137V44.9922ZM124.559 46.832H117.246V46.082H124.559V46.832ZM134.25 44.207H133.348V36.543H134.25V44.207ZM134.555 46.7266H127.418V45.9531H134.555V46.7266ZM128.344 46.3398H127.418V43.6094H128.344V46.3398ZM127.055 41.957C128.117 41.957 129.021 41.9316 129.768 41.8809C130.514 41.8301 131.277 41.7383 132.059 41.6055L132.152 42.3672C131.355 42.5 130.58 42.5918 129.826 42.6426C129.072 42.6934 128.148 42.7227 127.055 42.7305H126.211V41.957H127.055ZM130.945 40.293H127.102V42.2031H126.211V39.5664H130.031V38.0312H126.188V37.2812H130.945V40.293Z" fill="black"/>
<path d="M18.7266 61.1875C18.6484 60.8047 18.4941 60.4785 18.2637 60.209C18.0332 59.9395 17.752 59.7344 17.4199 59.5938C17.0879 59.4531 16.7344 59.3828 16.3594 59.3828C15.8438 59.3828 15.3789 59.5137 14.9648 59.7754C14.5508 60.0371 14.2246 60.4219 13.9863 60.9297C13.748 61.4375 13.6289 62.0469 13.6289 62.7578C13.6289 63.4688 13.748 64.0781 13.9863 64.5859C14.2246 65.0938 14.5508 65.4785 14.9648 65.7402C15.3789 66.002 15.8438 66.1328 16.3594 66.1328C16.7344 66.1328 17.0859 66.0625 17.4141 65.9219C17.7422 65.7812 18.0234 65.5762 18.2578 65.3066C18.4922 65.0371 18.6484 64.7148 18.7266 64.3398H19.7812C19.6797 64.9023 19.4688 65.3945 19.1484 65.8164C18.8281 66.2383 18.4277 66.5605 17.9473 66.7832C17.4668 67.0059 16.9375 67.1172 16.3594 67.1172C15.6328 67.1172 14.9863 66.9395 14.4199 66.584C13.8535 66.2285 13.4102 65.7207 13.0898 65.0605C12.7695 64.4004 12.6094 63.6328 12.6094 62.7578C12.6094 61.875 12.7695 61.1055 13.0898 60.4492C13.4102 59.793 13.8535 59.2871 14.4199 58.9316C14.9863 58.5762 15.6328 58.3984 16.3594 58.3984C16.9297 58.3984 17.457 58.5098 17.9414 58.7324C18.4258 58.9551 18.8281 59.2754 19.1484 59.6934C19.4688 60.1113 19.6797 60.6094 19.7812 61.1875H18.7266ZM20.5195 67L23.625 58.5156H24.7383L27.8438 67H26.7305L24.2109 59.8867H24.1406L21.6211 67H20.5195ZM26.3555 63.6836V64.6094H22.0078V63.6836H26.3555ZM30.2578 58.5156L33.1172 65.5H33.2227L36.082 58.5156H37.3477V67H36.3516V60.5898H36.2695L33.6328 67H32.6953L30.0586 60.5898H29.9883V67H28.9922V58.5156H30.2578ZM45.832 58.5156V64.1289C45.832 64.707 45.6953 65.2246 45.4219 65.6816C45.1484 66.1387 44.7617 66.498 44.2617 66.7598C43.7617 67.0215 43.1836 67.1523 42.5273 67.1523C41.8711 67.1523 41.293 67.0215 40.793 66.7598C40.293 66.498 39.9062 66.1387 39.6328 65.6816C39.3594 65.2246 39.2227 64.707 39.2227 64.1289V58.5156H40.2773V64.0469C40.2773 64.4531 40.3691 64.8164 40.5527 65.1367C40.7363 65.457 40.998 65.709 41.3379 65.8926C41.6777 66.0762 42.0742 66.168 42.5273 66.168C42.9883 66.168 43.3887 66.0762 43.7285 65.8926C44.0684 65.709 44.3281 65.457 44.5078 65.1367C44.6875 64.8164 44.7773 64.4531 44.7773 64.0469V58.5156H45.832ZM52.3359 60.6484C52.3047 60.375 52.207 60.1387 52.043 59.9395C51.8789 59.7402 51.6602 59.5898 51.3867 59.4883C51.1133 59.3867 50.8047 59.3359 50.4609 59.3359C50.0938 59.3359 49.7695 59.3945 49.4883 59.5117C49.207 59.6289 48.9883 59.793 48.832 60.0039C48.6758 60.2148 48.5977 60.457 48.5977 60.7305C48.5977 61.1211 48.7578 61.4199 49.0781 61.627C49.3984 61.834 49.7852 61.9961 50.2383 62.1133L51.082 62.3477C51.7383 62.5117 52.3027 62.7695 52.7754 63.1211C53.248 63.4727 53.4844 63.9961 53.4844 64.6914C53.4844 65.1523 53.3633 65.5703 53.1211 65.9453C52.8789 66.3203 52.5254 66.6152 52.0605 66.8301C51.5957 67.0449 51.043 67.1523 50.4023 67.1523C49.8008 67.1523 49.2754 67.0547 48.8262 66.8594C48.377 66.6641 48.0254 66.3887 47.7715 66.0332C47.5176 65.6777 47.375 65.2656 47.3438 64.7969H48.4219C48.4531 65.1016 48.5605 65.3574 48.7441 65.5645C48.9277 65.7715 49.1641 65.9277 49.4531 66.0332C49.7422 66.1387 50.0586 66.1914 50.4023 66.1914C50.793 66.1914 51.1445 66.1289 51.457 66.0039C51.7695 65.8789 52.0137 65.6992 52.1895 65.4648C52.3652 65.2305 52.4531 64.9648 52.4531 64.668C52.4531 64.4102 52.3809 64.1934 52.2363 64.0176C52.0918 63.8418 51.9004 63.6992 51.6621 63.5898C51.4238 63.4805 51.1289 63.375 50.7773 63.2734L49.7344 62.9922C49.0391 62.7891 48.5059 62.5078 48.1348 62.1484C47.7637 61.7891 47.5781 61.332 47.5781 60.7773C47.5781 60.3086 47.707 59.8945 47.9648 59.5352C48.2227 59.1758 48.5723 58.8965 49.0137 58.6973C49.4551 58.498 49.9492 58.3984 50.4961 58.3984C51.0352 58.3984 51.5195 58.4961 51.9492 58.6914C52.3789 58.8867 52.7188 59.1543 52.9688 59.4941C53.2188 59.834 53.3516 60.2188 53.3672 60.6484H52.3359ZM65.6719 61.8438H62.7422V61.0938H65.6719V61.8438ZM60.9844 60.332C60.9844 61.082 60.8574 61.8184 60.6035 62.541C60.3496 63.2637 60.002 63.9043 59.5605 64.4629C59.1191 65.0215 58.625 65.4492 58.0781 65.7461L57.4805 65.0078C57.9883 64.7578 58.4512 64.3867 58.8691 63.8945C59.2871 63.4023 59.6172 62.8418 59.8594 62.2129C60.1016 61.584 60.2227 60.957 60.2227 60.332V58.4336H60.9844V60.332ZM61.1602 60.332C61.1602 60.9492 61.2812 61.5586 61.5234 62.1602C61.7656 62.7617 62.0938 63.2949 62.5078 63.7598C62.9219 64.2246 63.3789 64.5742 63.8789 64.8086L63.3281 65.5586C62.7734 65.2695 62.2754 64.8574 61.834 64.3223C61.3926 63.7871 61.0449 63.1719 60.791 62.4766C60.5371 61.7812 60.4102 61.0664 60.4102 60.332V58.4336H61.1602V60.332ZM66.1289 67.9727H65.2148V57.5312H66.1289V67.9727ZM76.4531 67.9727H75.5273V57.5312H76.4531V67.9727ZM69.3867 61.1758H72.4922V58.4219H73.3945V65.4531H68.4727V58.4219H69.3867V61.1758ZM72.4922 64.6797V61.9141H69.3867V64.6797H72.4922ZM83.2734 59.0664C83.2734 59.7852 83.0703 60.457 82.6641 61.082C82.2578 61.707 81.7324 62.2344 81.0879 62.6641C80.4434 63.0938 79.7656 63.3906 79.0547 63.5547L78.6328 62.7812C79.25 62.6562 79.8555 62.4121 80.4492 62.0488C81.043 61.6855 81.5273 61.2402 81.9023 60.7129C82.2773 60.1855 82.4648 59.6367 82.4648 59.0664V58.2695H83.2734V59.0664ZM83.4258 59.0664C83.4258 59.6289 83.6172 60.1758 84 60.707C84.3828 61.2383 84.873 61.6875 85.4707 62.0547C86.0684 62.4219 86.6719 62.6641 87.2812 62.7812L86.8594 63.5547C86.1562 63.3906 85.4824 63.0957 84.8379 62.6699C84.1934 62.2441 83.666 61.7168 83.2559 61.0879C82.8457 60.459 82.6406 59.7852 82.6406 59.0664V58.2695H83.4258V59.0664ZM87.7734 66.5312H78.2344V65.7695H87.7734V66.5312ZM98.1328 63.0977H88.5938V62.3711H98.1328V63.0977ZM96.9375 66.1445H90.6797V67.3867H89.7539V65.5117H96.0234V64.6211H89.7422V63.9297H96.9375V66.1445ZM97.2773 67.8086H89.7539V67.1406H97.2773V67.8086ZM96.9023 60.0039H90.75V61.1523H89.8359V59.3711H95.9766V58.5156H89.8008V57.8477H96.9023V60.0039ZM97.0898 61.5859H89.8359V60.918H97.0898V61.5859ZM110.402 63.168H103.207V62.418H110.402V63.168ZM111.527 66.6367H101.988V65.8633H111.527V66.6367ZM107.18 66.1797H106.277V62.7461H107.18V66.1797ZM110.297 59.1367H104.133V62.7695H103.207V58.3867H110.297V59.1367ZM120.961 63.1211H120.047V57.5312H120.961V63.1211ZM115.125 64.9141H120.047V63.6484H120.961V67.8086H114.211V63.6484H115.125V64.9141ZM120.047 67.0586V65.6523H115.125V67.0586H120.047ZM115.336 58.0469C115.859 58.0391 116.328 58.1348 116.742 58.334C117.156 58.5332 117.48 58.8164 117.715 59.1836C117.949 59.5508 118.066 59.9688 118.066 60.4375C118.066 60.8984 117.949 61.3105 117.715 61.6738C117.48 62.0371 117.156 62.3203 116.742 62.5234C116.328 62.7266 115.859 62.8281 115.336 62.8281C114.812 62.8281 114.344 62.7266 113.93 62.5234C113.516 62.3203 113.191 62.0371 112.957 61.6738C112.723 61.3105 112.605 60.8984 112.605 60.4375C112.605 59.9688 112.723 59.5508 112.957 59.1836C113.191 58.8164 113.516 58.5332 113.93 58.334C114.344 58.1348 114.812 58.0391 115.336 58.0469ZM115.336 58.8203C114.984 58.8125 114.67 58.8789 114.393 59.0195C114.115 59.1602 113.898 59.3535 113.742 59.5996C113.586 59.8457 113.508 60.125 113.508 60.4375C113.508 60.75 113.586 61.0293 113.742 61.2754C113.898 61.5215 114.115 61.7148 114.393 61.8555C114.67 61.9961 114.984 62.0664 115.336 62.0664C115.688 62.0664 116.002 61.9961 116.279 61.8555C116.557 61.7148 116.773 61.5215 116.93 61.2754C117.086 61.0293 117.164 60.75 117.164 60.4375C117.164 60.125 117.086 59.8457 116.93 59.5996C116.773 59.3535 116.557 59.1602 116.279 59.0195C116.002 58.8789 115.688 58.8125 115.336 58.8203ZM130.793 67.9492H129.879V57.5312H130.793V67.9492ZM132.539 62.5938H130.582V61.832H132.539V62.5938ZM128.871 59.9688H122.672V59.207H128.871V59.9688ZM125.824 60.8359C126.316 60.8359 126.756 60.9375 127.143 61.1406C127.529 61.3438 127.832 61.627 128.051 61.9902C128.27 62.3535 128.379 62.7656 128.379 63.2266C128.379 63.6875 128.27 64.0996 128.051 64.4629C127.832 64.8262 127.529 65.1094 127.143 65.3125C126.756 65.5156 126.316 65.6172 125.824 65.6172C125.332 65.6172 124.893 65.5156 124.506 65.3125C124.119 65.1094 123.816 64.8262 123.598 64.4629C123.379 64.0996 123.27 63.6875 123.27 63.2266C123.27 62.7656 123.379 62.3535 123.598 61.9902C123.816 61.627 124.119 61.3438 124.506 61.1406C124.893 60.9375 125.332 60.8359 125.824 60.8359ZM125.824 61.6094C125.504 61.6094 125.217 61.6777 124.963 61.8145C124.709 61.9512 124.51 62.1426 124.365 62.3887C124.221 62.6348 124.148 62.9141 124.148 63.2266C124.148 63.5391 124.221 63.8164 124.365 64.0586C124.51 64.3008 124.709 64.4902 124.963 64.627C125.217 64.7637 125.504 64.832 125.824 64.832C126.145 64.832 126.432 64.7637 126.686 64.627C126.939 64.4902 127.139 64.3008 127.283 64.0586C127.428 63.8164 127.5 63.5391 127.5 63.2266C127.5 62.9141 127.428 62.6348 127.283 62.3887C127.139 62.1426 126.939 61.9512 126.686 61.8145C126.432 61.6777 126.145 61.6094 125.824 61.6094ZM126.27 59.5586H125.355V57.6602H126.27V59.5586ZM140.883 59.3477H134.109V58.5859H140.883V59.3477ZM142.594 66.4727H133.102V65.7109H142.594V66.4727ZM137.73 66.1094H136.828V61.9844H137.73V66.1094ZM141.457 59.6289C141.457 60.2461 141.449 60.7598 141.434 61.1699C141.418 61.5801 141.383 62.0645 141.328 62.623C141.273 63.1816 141.188 63.7852 141.07 64.4336L140.133 64.3281C140.258 63.7109 140.35 63.1289 140.408 62.582C140.467 62.0352 140.502 61.5488 140.514 61.123C140.525 60.6973 140.531 60.1992 140.531 59.6289V58.5859H141.457V59.6289ZM155.086 63.332H154.172V57.543H155.086V63.332ZM150.012 58.9492C150.012 59.5742 149.885 60.166 149.631 60.7246C149.377 61.2832 149.025 61.7676 148.576 62.1777C148.127 62.5879 147.609 62.8984 147.023 63.1094L146.555 62.3828C147.078 62.1953 147.543 61.9277 147.949 61.5801C148.355 61.2324 148.672 60.8301 148.898 60.373C149.125 59.916 149.238 59.4414 149.238 58.9492V57.9297H150.012V58.9492ZM150.176 58.9492C150.176 59.418 150.289 59.8691 150.516 60.3027C150.742 60.7363 151.057 61.1172 151.459 61.4453C151.861 61.7734 152.32 62.0234 152.836 62.1953L152.391 62.9219C151.805 62.7188 151.287 62.4238 150.838 62.0371C150.389 61.6504 150.037 61.1914 149.783 60.6602C149.529 60.1289 149.402 59.5586 149.402 58.9492V57.9297H150.176V58.9492ZM155.156 64.7031H148.148V63.9531H155.156V64.7031ZM155.262 67.8086H148.055V67.0586H155.262V67.8086ZM150.516 67.5039H149.613V64.2695H150.516V67.5039ZM153.715 67.5039H152.801V64.2695H153.715V67.5039ZM166.348 63.7773H156.855V63.0273H166.348V63.7773ZM165.293 67.7266H158.086V66.9531H165.293V67.7266ZM159.012 67.1875H158.086V64.6914H159.012V67.1875ZM161.602 57.9062C162.344 57.8984 162.992 57.9766 163.547 58.1406C164.102 58.3047 164.529 58.543 164.83 58.8555C165.131 59.168 165.281 59.5391 165.281 59.9688C165.281 60.3984 165.131 60.7676 164.83 61.0762C164.529 61.3848 164.102 61.623 163.547 61.791C162.992 61.959 162.344 62.043 161.602 62.043C160.852 62.043 160.199 61.959 159.645 61.791C159.09 61.623 158.662 61.3848 158.361 61.0762C158.061 60.7676 157.91 60.3984 157.91 59.9688C157.91 59.5391 158.061 59.168 158.361 58.8555C158.662 58.543 159.09 58.3047 159.645 58.1406C160.199 57.9766 160.852 57.8984 161.602 57.9062ZM161.602 58.6445C161.047 58.6445 160.562 58.6973 160.148 58.8027C159.734 58.9082 159.416 59.0605 159.193 59.2598C158.971 59.459 158.859 59.6953 158.859 59.9688C158.859 60.2344 158.971 60.4668 159.193 60.666C159.416 60.8652 159.734 61.0195 160.148 61.1289C160.562 61.2383 161.047 61.293 161.602 61.293C162.156 61.293 162.641 61.2383 163.055 61.1289C163.469 61.0195 163.787 60.8652 164.01 60.666C164.232 60.4668 164.344 60.2344 164.344 59.9688C164.344 59.6953 164.232 59.459 164.01 59.2598C163.787 59.0605 163.469 58.9082 163.055 58.8027C162.641 58.6973 162.156 58.6445 161.602 58.6445ZM176.145 67.9492H175.254V57.5312H176.145V67.9492ZM173.531 62.2891H170.859V61.5156H173.531V62.2891ZM174.012 67.4102H173.133V57.7891H174.012V67.4102ZM168.293 64.668C169.152 64.668 169.859 64.6465 170.414 64.6035C170.969 64.5605 171.531 64.4766 172.102 64.3516L172.195 65.1367C171.625 65.2539 171.059 65.332 170.496 65.3711C169.934 65.4102 169.199 65.4336 168.293 65.4414H167.637V64.668H168.293ZM171.562 59.582H168.527V64.9609H167.637V58.8203H171.562V59.582ZM180.867 66.0273H179.965V62.9102H180.867V66.0273ZM184.77 66.0273H183.844V62.9102H184.77V66.0273ZM187.137 66.6133H177.598V65.8398H187.137V66.6133ZM182.344 58.1875C183.086 58.1875 183.744 58.2988 184.318 58.5215C184.893 58.7441 185.342 59.0586 185.666 59.4648C185.99 59.8711 186.152 60.3398 186.152 60.8711C186.152 61.4023 185.99 61.8691 185.666 62.2715C185.342 62.6738 184.893 62.9863 184.318 63.209C183.744 63.4316 183.086 63.543 182.344 63.543C181.609 63.543 180.953 63.4316 180.375 63.209C179.797 62.9863 179.346 62.6738 179.021 62.2715C178.697 61.8691 178.535 61.4023 178.535 60.8711C178.535 60.3398 178.697 59.8711 179.021 59.4648C179.346 59.0586 179.797 58.7441 180.375 58.5215C180.953 58.2988 181.609 58.1875 182.344 58.1875ZM182.344 58.9492C181.781 58.9414 181.279 59.0176 180.838 59.1777C180.396 59.3379 180.051 59.5645 179.801 59.8574C179.551 60.1504 179.426 60.4883 179.426 60.8711C179.426 61.2539 179.551 61.5918 179.801 61.8848C180.051 62.1777 180.396 62.4062 180.838 62.5703C181.279 62.7344 181.781 62.8164 182.344 62.8164C182.906 62.8164 183.408 62.7344 183.85 62.5703C184.291 62.4062 184.637 62.1777 184.887 61.8848C185.137 61.5918 185.262 61.2539 185.262 60.8711C185.262 60.4883 185.137 60.1504 184.887 59.8574C184.637 59.5645 184.291 59.3379 183.85 59.1777C183.408 59.0176 182.906 58.9414 182.344 58.9492Z" fill="#858899"/>
<rect x="335" y="56" width="13" height="14" rx="6.5" fill="#117CE9"/>
<path d="M339.523 65.4844L341.453 63.4531C341.708 63.1823 341.904 62.9648 342.039 62.8008C342.174 62.6367 342.276 62.4766 342.344 62.3203C342.411 62.1641 342.445 62.0026 342.445 61.8359C342.445 61.6484 342.396 61.4818 342.297 61.3359C342.198 61.1901 342.064 61.0768 341.895 60.9961C341.725 60.9154 341.534 60.875 341.32 60.875C341.102 60.875 340.909 60.9193 340.742 61.0078C340.576 61.0964 340.447 61.2214 340.355 61.3828C340.264 61.5443 340.219 61.7292 340.219 61.9375H339.555C339.555 61.6094 339.632 61.319 339.785 61.0664C339.939 60.8138 340.152 60.6172 340.426 60.4766C340.699 60.3359 341.005 60.2656 341.344 60.2656C341.682 60.2656 341.984 60.3346 342.25 60.4727C342.516 60.6107 342.724 60.7995 342.875 61.0391C343.026 61.2786 343.102 61.5443 343.102 61.8359C343.102 62.0495 343.062 62.2552 342.984 62.4531C342.906 62.651 342.776 62.8685 342.594 63.1055C342.411 63.3424 342.148 63.638 341.805 63.9922L340.508 65.3281V65.375H343.203V66H339.531L339.523 65.4844Z" fill="white"/>
</svg>
