<svg width="101" height="100" viewBox="0 0 101 100" fill="none" xmlns="http://www.w3.org/2000/svg">
<rect x="0.5" width="100" height="100" rx="50" fill="#023A73"/>
<path d="M50.5003 49.9998C58.6037 49.9998 65.167 43.4365 65.167 35.3332C65.167 27.2298 58.6037 20.6665 50.5003 20.6665C42.397 20.6665 35.8337 27.2298 35.8337 35.3332C35.8337 43.4365 42.397 49.9998 50.5003 49.9998ZM50.5003 57.3332C40.7103 57.3332 21.167 62.2465 21.167 71.9998V75.6665C21.167 77.6832 22.817 79.3332 24.8337 79.3332H76.167C78.1837 79.3332 79.8337 77.6832 79.8337 75.6665V71.9998C79.8337 62.2465 60.2903 57.3332 50.5003 57.3332Z" fill="white"/>
</svg>
