<svg width="446" height="462" viewBox="0 0 446 462" fill="none" xmlns="http://www.w3.org/2000/svg">
<g filter="url(#filter0_d_962_5350)">
<g clip-path="url(#clip0_962_5350)">
<rect x="23" y="22" width="400" height="416" rx="20" fill="white"/>
<g clip-path="url(#clip1_962_5350)">
<rect x="39" y="63" width="32" height="32" rx="16" fill="#023A73"/>
<path d="M55 78.9999C56.8417 78.9999 58.3334 77.5083 58.3334 75.6666C58.3334 73.8249 56.8417 72.3333 55 72.3333C53.1584 72.3333 51.6667 73.8249 51.6667 75.6666C51.6667 77.5083 53.1584 78.9999 55 78.9999ZM55 80.6666C52.775 80.6666 48.3334 81.7833 48.3334 83.9999V84.8333C48.3334 85.2916 48.7084 85.6666 49.1667 85.6666H60.8334C61.2917 85.6666 61.6667 85.2916 61.6667 84.8333V83.9999C61.6667 81.7833 57.225 80.6666 55 80.6666Z" fill="white"/>
<g clip-path="url(#clip2_962_5350)">
<rect x="75" y="34" width="197" height="61" rx="24" fill="#F6F7F8"/>
<path d="M101.037 56.7656H91.3574V55.6758H101.037V56.7656ZM100.188 49.4824H92.1426V48.4277H100.188V49.4824ZM100.146 53.8887H92.1836V52.8457H100.146V53.8887ZM94.9785 52.957H93.6719V49.377H94.9785V52.957ZM98.6406 52.957H97.3574V49.377H98.6406V52.957ZM110.529 55.2539H109.234V47.4609H110.529V55.2539ZM110.822 57.8438H103.469V56.7773H110.822V57.8438ZM104.775 57.3223H103.469V54.6211H104.775V57.3223ZM103.188 52.7871C104.344 52.7871 105.287 52.7637 106.018 52.7168C106.748 52.6699 107.479 52.5801 108.209 52.4473L108.344 53.502C107.59 53.6348 106.834 53.7266 106.076 53.7773C105.322 53.8281 104.359 53.8535 103.188 53.8535H102.279V52.7871H103.188ZM107.143 51.4453H103.557V53.1035H102.279V50.4609H105.854V49.2129H102.268V48.1758H107.143V51.4453ZM118.193 52.1719H116.295V51.0996H118.193V52.1719ZM115.146 50.2852C115.146 51.082 115.057 51.8438 114.877 52.5703C114.701 53.293 114.432 53.9414 114.068 54.5156C113.705 55.0859 113.258 55.5332 112.727 55.8574L111.924 54.8906C112.416 54.5898 112.828 54.1953 113.16 53.707C113.492 53.2188 113.738 52.6836 113.898 52.1016C114.062 51.5195 114.145 50.9141 114.145 50.2852V48.3926H115.146V50.2852ZM115.404 50.2324C115.404 50.8379 115.475 51.416 115.615 51.9668C115.76 52.5137 115.982 53.0195 116.283 53.4844C116.588 53.9492 116.969 54.3262 117.426 54.6152L116.711 55.623C116.184 55.3066 115.75 54.8672 115.41 54.3047C115.07 53.7422 114.82 53.1172 114.66 52.4297C114.5 51.7422 114.42 51.0098 114.42 50.2324V48.3926H115.404V50.2324ZM121.234 58.0312H119.98V47.4492H121.234V58.0312ZM119.025 57.5332H117.807V47.6309H119.025V57.5332ZM127.697 48.8965C127.697 49.6504 127.508 50.3574 127.129 51.0176C126.754 51.6777 126.234 52.2383 125.57 52.6992C124.91 53.1602 124.162 53.4785 123.326 53.6543L122.764 52.5703C123.479 52.4336 124.125 52.1797 124.703 51.8086C125.285 51.4375 125.738 50.9961 126.062 50.4844C126.391 49.9727 126.555 49.4434 126.555 48.8965V48.123H127.697V48.8965ZM127.932 48.8965C127.932 49.4434 128.096 49.9746 128.424 50.4902C128.756 51.002 129.213 51.4453 129.795 51.8203C130.381 52.1914 131.033 52.4414 131.752 52.5703L131.172 53.6543C130.344 53.4785 129.6 53.1621 128.939 52.7051C128.279 52.248 127.76 51.6914 127.381 51.0352C127.006 50.375 126.818 49.6621 126.818 48.8965V48.123H127.932V48.8965ZM132.15 56.6895H122.471V55.6172H132.15V56.6895ZM141.303 48.0938C141.303 49 141.105 49.8164 140.711 50.543C140.316 51.2656 139.742 51.8828 138.988 52.3945C138.238 52.9023 137.336 53.2969 136.281 53.5781L135.771 52.5527C136.658 52.3223 137.41 52.0176 138.027 51.6387C138.648 51.2598 139.121 50.8223 139.445 50.3262C139.77 49.8262 139.932 49.2871 139.932 48.709V48.0938H141.303ZM140.74 49.1191H136.369V48.0938H140.74V49.1191ZM144.514 53.3906H143.207V47.4609H144.514V53.3906ZM144.514 57.9082H137.518V53.8535H144.514V57.9082ZM138.807 56.8711H143.236V54.8789H138.807V56.8711ZM152.271 50.2676H150.385V49.2246H152.271V50.2676ZM149.09 48.7148C149.09 49.332 149.002 49.9199 148.826 50.4785C148.65 51.0332 148.385 51.5332 148.029 51.9785C147.674 52.4199 147.234 52.7656 146.711 53.0156L145.973 52.0312C146.438 51.8203 146.826 51.541 147.139 51.1934C147.455 50.8418 147.689 50.4551 147.842 50.0332C147.994 49.6074 148.07 49.168 148.07 48.7148V47.8652H149.09V48.7148ZM149.336 48.7441C149.336 49.166 149.408 49.5723 149.553 49.9629C149.697 50.3496 149.916 50.6973 150.209 51.0059C150.502 51.3105 150.863 51.5527 151.293 51.7324L150.613 52.6992C150.098 52.4844 149.672 52.1816 149.336 51.791C149.004 51.3965 148.76 50.9414 148.604 50.4258C148.447 49.9062 148.369 49.3457 148.369 48.7441V47.8652H149.336V48.7441ZM155.125 53.0273H153.883V47.4609H155.125V53.0273ZM153.004 52.9746H151.762V47.6309H153.004V52.9746ZM155.125 56.1328H149.266V57.5156H147.971V55.1602H153.836V54.4453H147.953V53.4316H155.125V56.1328ZM155.506 57.9492H147.971V56.9121H155.506V57.9492ZM165.244 55.2539H163.949V47.4609H165.244V55.2539ZM165.537 57.8438H158.184V56.7773H165.537V57.8438ZM159.49 57.3223H158.184V54.6211H159.49V57.3223ZM157.902 52.7871C159.059 52.7871 160.002 52.7637 160.732 52.7168C161.463 52.6699 162.193 52.5801 162.924 52.4473L163.059 53.502C162.305 53.6348 161.549 53.7266 160.791 53.7773C160.037 53.8281 159.074 53.8535 157.902 53.8535H156.994V52.7871H157.902ZM161.857 51.4453H158.271V53.1035H156.994V50.4609H160.568V49.2129H156.982V48.1758H161.857V51.4453Z" fill="black"/>
<path d="M98.4844 77.7031H97.2812V74.2188H98.4844V77.7031ZM97.8906 67.2812C98.8698 67.2812 99.7448 67.4323 100.516 67.7344C101.286 68.0365 101.888 68.4635 102.32 69.0156C102.753 69.5677 102.969 70.2031 102.969 70.9219C102.969 71.651 102.753 72.2891 102.32 72.8359C101.888 73.3828 101.286 73.8073 100.516 74.1094C99.7448 74.4115 98.8698 74.5625 97.8906 74.5625C96.9115 74.5625 96.0365 74.4115 95.2656 74.1094C94.4948 73.8073 93.8932 73.3828 93.4609 72.8359C93.0286 72.2891 92.8125 71.651 92.8125 70.9219C92.8125 70.2031 93.0286 69.5677 93.4609 69.0156C93.8932 68.4635 94.4948 68.0365 95.2656 67.7344C96.0365 67.4323 96.9115 67.2812 97.8906 67.2812ZM97.8906 68.2969C97.151 68.2969 96.4844 68.4062 95.8906 68.625C95.2969 68.8438 94.8333 69.1536 94.5 69.5547C94.1667 69.9557 94 70.4115 94 70.9219C94 71.4427 94.1667 71.9036 94.5 72.3047C94.8333 72.7057 95.2943 73.0156 95.8828 73.2344C96.4714 73.4531 97.1406 73.5677 97.8906 73.5781C98.6406 73.5677 99.3099 73.4531 99.8984 73.2344C100.487 73.0156 100.948 72.7057 101.281 72.3047C101.615 71.9036 101.781 71.4427 101.781 70.9219C101.781 70.4115 101.615 69.9557 101.281 69.5547C100.948 69.1536 100.487 68.8438 99.8984 68.625C99.3099 68.4062 98.6406 68.2969 97.8906 68.2969ZM104.281 78.4844H91.5625V77.4531H104.281V78.4844ZM116.594 70.7344H107.109V69.7188H116.594V70.7344ZM118.094 73.1094H105.375V72.1094H118.094V73.1094ZM108.312 70.1875H107.109V66.6094H108.312V70.1875ZM116.453 77.6094H108.234V79.4375H107V76.6719H115.25V75.3281H106.969V74.3594H116.453V77.6094ZM116.953 80.0781H107V79.0938H116.953V80.0781ZM131.875 74.7031H119.219V73.7031H131.875V74.7031ZM130.469 79.9688H120.859V78.9375H130.469V79.9688ZM122.094 79.25H120.859V75.9219H122.094V79.25ZM125.547 66.875C126.536 66.8646 127.401 66.9688 128.141 67.1875C128.88 67.4062 129.451 67.724 129.852 68.1406C130.253 68.5573 130.453 69.0521 130.453 69.625C130.453 70.1979 130.253 70.6901 129.852 71.1016C129.451 71.513 128.88 71.8307 128.141 72.0547C127.401 72.2786 126.536 72.3906 125.547 72.3906C124.547 72.3906 123.677 72.2786 122.938 72.0547C122.198 71.8307 121.628 71.513 121.227 71.1016C120.826 70.6901 120.625 70.1979 120.625 69.625C120.625 69.0521 120.826 68.5573 121.227 68.1406C121.628 67.724 122.198 67.4062 122.938 67.1875C123.677 66.9688 124.547 66.8646 125.547 66.875ZM125.547 67.8594C124.807 67.8594 124.161 67.9297 123.609 68.0703C123.057 68.2109 122.633 68.4141 122.336 68.6797C122.039 68.9453 121.891 69.2604 121.891 69.625C121.891 69.9792 122.039 70.2891 122.336 70.5547C122.633 70.8203 123.057 71.026 123.609 71.1719C124.161 71.3177 124.807 71.3906 125.547 71.3906C126.286 71.3906 126.932 71.3177 127.484 71.1719C128.036 71.026 128.461 70.8203 128.758 70.5547C129.055 70.2891 129.203 69.9792 129.203 69.625C129.203 69.2604 129.055 68.9453 128.758 68.6797C128.461 68.4141 128.036 68.2109 127.484 68.0703C126.932 67.9297 126.286 67.8594 125.547 67.8594ZM149.766 75.4688H137.047V74.4531H149.766V75.4688ZM143.969 80.2656H142.766V75.0625H143.969V80.2656ZM148.109 72.5625H138.688V67.1562H148.109V72.5625ZM139.891 71.5938H146.891V68.1562H139.891V71.5938ZM163.547 74.625H150.891V73.6094H163.547V74.625ZM162.141 79.9688H152.531V78.9375H162.141V79.9688ZM153.766 79.2969H152.531V75.9688H153.766V79.2969ZM157.656 67.4688C157.656 68.2708 157.398 69.0156 156.883 69.7031C156.367 70.3906 155.69 70.9661 154.852 71.4297C154.013 71.8932 153.12 72.2135 152.172 72.3906L151.672 71.4219C152.495 71.2865 153.286 71.0234 154.047 70.6328C154.807 70.2422 155.422 69.7682 155.891 69.2109C156.359 68.6536 156.594 68.0729 156.594 67.4688V66.75H157.656V67.4688ZM157.859 67.4688C157.859 68.0625 158.096 68.638 158.57 69.1953C159.044 69.7526 159.659 70.2292 160.414 70.625C161.169 71.0208 161.953 71.2865 162.766 71.4219L162.266 72.3906C161.328 72.2135 160.44 71.8932 159.602 71.4297C158.763 70.9661 158.086 70.388 157.57 69.6953C157.055 69.0026 156.797 68.2604 156.797 67.4688V66.75H157.859V67.4688ZM175.453 68.3438C175.453 69.1354 175.193 69.8646 174.672 70.5312C174.151 71.1979 173.474 71.7526 172.641 72.1953C171.807 72.638 170.917 72.9427 169.969 73.1094L169.484 72.1406C170.297 72.0156 171.081 71.7682 171.836 71.3984C172.591 71.0286 173.203 70.5755 173.672 70.0391C174.141 69.5026 174.375 68.9375 174.375 68.3438V67.75H175.453V68.3438ZM175.75 68.3438C175.75 68.9375 175.984 69.5026 176.453 70.0391C176.922 70.5755 177.534 71.0286 178.289 71.3984C179.044 71.7682 179.828 72.0156 180.641 72.1406L180.188 73.1094C179.229 72.9427 178.331 72.6406 177.492 72.2031C176.654 71.7656 175.977 71.2109 175.461 70.5391C174.945 69.8672 174.688 69.1354 174.688 68.3438V67.75H175.75V68.3438ZM175.641 80.2656H174.438V74.9531H175.641V80.2656ZM181.391 75.3125H168.734V74.2969H181.391V75.3125ZM180.188 68.25H169.922V67.25H180.188V68.25ZM194.438 80.2656H193.266V66.375H194.438V80.2656ZM190.844 72.3906H188.125V71.3906H190.844V72.3906ZM191.625 79.5469H190.469V66.7188H191.625V79.5469ZM186.422 70.3438C186.422 71.3438 186.289 72.3099 186.023 73.2422C185.758 74.1745 185.383 75.0104 184.898 75.75C184.414 76.4896 183.839 77.0677 183.172 77.4844L182.391 76.5625C183.026 76.1875 183.576 75.6745 184.039 75.0234C184.503 74.3724 184.854 73.6406 185.094 72.8281C185.333 72.0156 185.453 71.1875 185.453 70.3438V68.5312H186.422V70.3438ZM186.641 70.3438C186.641 71.1458 186.758 71.9323 186.992 72.7031C187.227 73.474 187.57 74.1667 188.023 74.7812C188.477 75.3958 189.016 75.8854 189.641 76.25L188.891 77.1562C188.224 76.75 187.654 76.1979 187.18 75.5C186.706 74.8021 186.344 74.0078 186.094 73.1172C185.844 72.2266 185.719 71.3021 185.719 70.3438V68.5312H186.641V70.3438ZM189.188 69.0312H182.781V68.0156H189.188V69.0312ZM207.859 76.5469H206.641V66.3906H207.859V76.5469ZM208.297 79.9688H198.891V78.9375H208.297V79.9688ZM200.109 79.2812H198.891V75.5156H200.109V79.2812ZM200.359 67.3594C201.047 67.3594 201.669 67.5026 202.227 67.7891C202.784 68.0755 203.219 68.4792 203.531 69C203.844 69.5208 204 70.1094 204 70.7656C204 71.4323 203.844 72.0234 203.531 72.5391C203.219 73.0547 202.784 73.4583 202.227 73.75C201.669 74.0417 201.047 74.1875 200.359 74.1875C199.672 74.1875 199.052 74.0417 198.5 73.75C197.948 73.4583 197.513 73.0547 197.195 72.5391C196.878 72.0234 196.719 71.4323 196.719 70.7656C196.719 70.1094 196.878 69.5208 197.195 69C197.513 68.4792 197.948 68.0755 198.5 67.7891C199.052 67.5026 199.672 67.3594 200.359 67.3594ZM200.359 68.4375C199.901 68.4375 199.484 68.5365 199.109 68.7344C198.734 68.9323 198.443 69.2083 198.234 69.5625C198.026 69.9167 197.922 70.3177 197.922 70.7656C197.922 71.2135 198.026 71.6172 198.234 71.9766C198.443 72.3359 198.734 72.6146 199.109 72.8125C199.484 73.0104 199.901 73.1094 200.359 73.1094C200.818 73.1094 201.232 73.0104 201.602 72.8125C201.971 72.6146 202.263 72.3359 202.477 71.9766C202.69 71.6172 202.797 71.2135 202.797 70.7656C202.797 70.3177 202.69 69.9167 202.477 69.5625C202.263 69.2083 201.971 68.9323 201.602 68.7344C201.232 68.5365 200.818 68.4375 200.359 68.4375ZM220.969 80.2656H219.75V66.375H220.969V80.2656ZM223.219 73.0625H220.656V72.0312H223.219V73.0625ZM217.375 67.875C217.375 69.2292 217.154 70.5052 216.711 71.7031C216.268 72.901 215.573 74.0052 214.625 75.0156C213.677 76.026 212.469 76.8958 211 77.625L210.312 76.6562C211.604 76.0104 212.685 75.2552 213.555 74.3906C214.424 73.526 215.078 72.5651 215.516 71.5078C215.953 70.4505 216.172 69.3073 216.172 68.0781V67.875H217.375ZM216.797 68.9062H210.953V67.875H216.797V68.9062ZM228.406 77.7031H227.203V73.5469H228.406V77.7031ZM233.609 77.7031H232.375V73.5469H233.609V77.7031ZM236.766 78.4844H224.047V77.4531H236.766V78.4844ZM230.375 67.25C231.365 67.25 232.242 67.3984 233.008 67.6953C233.773 67.9922 234.372 68.4115 234.805 68.9531C235.237 69.4948 235.453 70.1198 235.453 70.8281C235.453 71.5365 235.237 72.1589 234.805 72.6953C234.372 73.2318 233.773 73.6484 233.008 73.9453C232.242 74.2422 231.365 74.3906 230.375 74.3906C229.396 74.3906 228.521 74.2422 227.75 73.9453C226.979 73.6484 226.378 73.2318 225.945 72.6953C225.513 72.1589 225.297 71.5365 225.297 70.8281C225.297 70.1198 225.513 69.4948 225.945 68.9531C226.378 68.4115 226.979 67.9922 227.75 67.6953C228.521 67.3984 229.396 67.25 230.375 67.25ZM230.375 68.2656C229.625 68.2552 228.956 68.3568 228.367 68.5703C227.779 68.7839 227.318 69.0859 226.984 69.4766C226.651 69.8672 226.484 70.3177 226.484 70.8281C226.484 71.3385 226.651 71.7891 226.984 72.1797C227.318 72.5703 227.779 72.875 228.367 73.0938C228.956 73.3125 229.625 73.4219 230.375 73.4219C231.125 73.4219 231.794 73.3125 232.383 73.0938C232.971 72.875 233.432 72.5703 233.766 72.1797C234.099 71.7891 234.266 71.3385 234.266 70.8281C234.266 70.3177 234.099 69.8672 233.766 69.4766C233.432 69.0859 232.971 68.7839 232.383 68.5703C231.794 68.3568 231.125 68.2552 230.375 68.2656ZM240.094 75.7344C240.104 75.0573 240.174 74.5104 240.305 74.0938C240.435 73.6771 240.62 73.3411 240.859 73.0859C241.099 72.8307 241.422 72.5833 241.828 72.3438C242.172 72.1354 242.448 71.8698 242.656 71.5469C242.865 71.224 242.969 70.8594 242.969 70.4531C242.969 70.1094 242.888 69.8047 242.727 69.5391C242.565 69.2734 242.341 69.0703 242.055 68.9297C241.768 68.7891 241.453 68.7188 241.109 68.7188C240.797 68.7188 240.505 68.7812 240.234 68.9062C239.964 69.0312 239.737 69.2318 239.555 69.5078C239.372 69.7839 239.266 70.125 239.234 70.5312H237.812C237.844 69.9167 238.008 69.3828 238.305 68.9297C238.602 68.4766 238.995 68.1302 239.484 67.8906C239.974 67.651 240.516 67.5312 241.109 67.5312C241.755 67.5312 242.323 67.6589 242.812 67.9141C243.302 68.1693 243.68 68.5234 243.945 68.9766C244.211 69.4297 244.344 69.9427 244.344 70.5156C244.344 71.1094 244.211 71.625 243.945 72.0625C243.68 72.5 243.297 72.875 242.797 73.1875C242.464 73.3854 242.203 73.5938 242.016 73.8125C241.828 74.0312 241.688 74.2917 241.594 74.5938C241.5 74.8958 241.448 75.276 241.438 75.7344V75.8125H240.094V75.7344ZM240.812 79.0938C240.635 79.0938 240.469 79.0469 240.312 78.9531C240.156 78.8594 240.034 78.7344 239.945 78.5781C239.857 78.4219 239.812 78.2552 239.812 78.0781C239.812 77.901 239.857 77.7344 239.945 77.5781C240.034 77.4219 240.156 77.2995 240.312 77.2109C240.469 77.1224 240.635 77.0781 240.812 77.0781C240.99 77.0781 241.156 77.1224 241.312 77.2109C241.469 77.2995 241.591 77.4219 241.68 77.5781C241.768 77.7344 241.812 77.901 241.812 78.0781C241.812 78.2552 241.768 78.4219 241.68 78.5781C241.591 78.7344 241.469 78.8594 241.312 78.9531C241.156 79.0469 240.99 79.0938 240.812 79.0938ZM247.766 75.7344C247.776 75.0573 247.846 74.5104 247.977 74.0938C248.107 73.6771 248.292 73.3411 248.531 73.0859C248.771 72.8307 249.094 72.5833 249.5 72.3438C249.844 72.1354 250.12 71.8698 250.328 71.5469C250.536 71.224 250.641 70.8594 250.641 70.4531C250.641 70.1094 250.56 69.8047 250.398 69.5391C250.237 69.2734 250.013 69.0703 249.727 68.9297C249.44 68.7891 249.125 68.7188 248.781 68.7188C248.469 68.7188 248.177 68.7812 247.906 68.9062C247.635 69.0312 247.409 69.2318 247.227 69.5078C247.044 69.7839 246.938 70.125 246.906 70.5312H245.484C245.516 69.9167 245.68 69.3828 245.977 68.9297C246.273 68.4766 246.667 68.1302 247.156 67.8906C247.646 67.651 248.188 67.5312 248.781 67.5312C249.427 67.5312 249.995 67.6589 250.484 67.9141C250.974 68.1693 251.352 68.5234 251.617 68.9766C251.883 69.4297 252.016 69.9427 252.016 70.5156C252.016 71.1094 251.883 71.625 251.617 72.0625C251.352 72.5 250.969 72.875 250.469 73.1875C250.135 73.3854 249.875 73.5938 249.688 73.8125C249.5 74.0312 249.359 74.2917 249.266 74.5938C249.172 74.8958 249.12 75.276 249.109 75.7344V75.8125H247.766V75.7344ZM248.484 79.0938C248.307 79.0938 248.141 79.0469 247.984 78.9531C247.828 78.8594 247.706 78.7344 247.617 78.5781C247.529 78.4219 247.484 78.2552 247.484 78.0781C247.484 77.901 247.529 77.7344 247.617 77.5781C247.706 77.4219 247.828 77.2995 247.984 77.2109C248.141 77.1224 248.307 77.0781 248.484 77.0781C248.661 77.0781 248.828 77.1224 248.984 77.2109C249.141 77.2995 249.263 77.4219 249.352 77.5781C249.44 77.7344 249.484 77.901 249.484 78.0781C249.484 78.2552 249.44 78.4219 249.352 78.5781C249.263 78.7344 249.141 78.8594 248.984 78.9531C248.828 79.0469 248.661 79.0938 248.484 79.0938Z" fill="black"/>
<path d="M79.5508 110H78.4844V102.617H78.4375L76.375 103.988V102.922L78.4844 101.516H79.5508V110ZM81.8008 109.227L84.6953 106.18C85.0781 105.773 85.3711 105.447 85.5742 105.201C85.7773 104.955 85.9297 104.715 86.0312 104.48C86.1328 104.246 86.1836 104.004 86.1836 103.754C86.1836 103.473 86.1094 103.223 85.9609 103.004C85.8125 102.785 85.6113 102.615 85.3574 102.494C85.1035 102.373 84.8164 102.312 84.4961 102.312C84.168 102.312 83.8789 102.379 83.6289 102.512C83.3789 102.645 83.1855 102.832 83.0488 103.074C82.9121 103.316 82.8438 103.594 82.8438 103.906H81.8477C81.8477 103.414 81.9629 102.979 82.1934 102.6C82.4238 102.221 82.7441 101.926 83.1543 101.715C83.5645 101.504 84.0234 101.398 84.5312 101.398C85.0391 101.398 85.4922 101.502 85.8906 101.709C86.2891 101.916 86.6016 102.199 86.8281 102.559C87.0547 102.918 87.168 103.316 87.168 103.754C87.168 104.074 87.1094 104.383 86.9922 104.68C86.875 104.977 86.6797 105.303 86.4062 105.658C86.1328 106.014 85.7383 106.457 85.2227 106.988L83.2773 108.992V109.062H87.3203V110H81.8125L81.8008 109.227ZM89.582 108.875C89.4492 108.875 89.3242 108.84 89.207 108.77C89.0898 108.699 88.998 108.605 88.9316 108.488C88.8652 108.371 88.832 108.246 88.832 108.113C88.832 107.98 88.8652 107.855 88.9316 107.738C88.998 107.621 89.0898 107.529 89.207 107.463C89.3242 107.396 89.4492 107.363 89.582 107.363C89.7148 107.363 89.8398 107.396 89.957 107.463C90.0742 107.529 90.166 107.621 90.2324 107.738C90.2988 107.855 90.332 107.98 90.332 108.113C90.332 108.246 90.2988 108.371 90.2324 108.488C90.166 108.605 90.0742 108.699 89.957 108.77C89.8398 108.84 89.7148 108.875 89.582 108.875ZM89.582 104.164C89.4492 104.164 89.3242 104.129 89.207 104.059C89.0898 103.988 88.998 103.895 88.9316 103.777C88.8652 103.66 88.832 103.535 88.832 103.402C88.832 103.27 88.8652 103.145 88.9316 103.027C88.998 102.91 89.0898 102.818 89.207 102.752C89.3242 102.686 89.4492 102.652 89.582 102.652C89.7148 102.652 89.8398 102.686 89.957 102.752C90.0742 102.818 90.166 102.91 90.2324 103.027C90.2988 103.145 90.332 103.27 90.332 103.402C90.332 103.535 90.2988 103.66 90.2324 103.777C90.166 103.895 90.0742 103.988 89.957 104.059C89.8398 104.129 89.7148 104.164 89.582 104.164ZM94.832 110.117C94.2773 110.117 93.7793 110.023 93.3379 109.836C92.8965 109.648 92.5488 109.385 92.2949 109.045C92.041 108.705 91.9023 108.312 91.8789 107.867H92.9453C92.9688 108.125 93.0645 108.354 93.2324 108.553C93.4004 108.752 93.623 108.906 93.9004 109.016C94.1777 109.125 94.4844 109.18 94.8203 109.18C95.1875 109.18 95.5195 109.115 95.8164 108.986C96.1133 108.857 96.3438 108.682 96.5078 108.459C96.6719 108.236 96.7539 107.98 96.7539 107.691C96.7539 107.379 96.6738 107.104 96.5137 106.865C96.3535 106.627 96.1191 106.441 95.8105 106.309C95.502 106.176 95.1289 106.109 94.6914 106.109H94V105.184H94.6914C95.0352 105.184 95.3398 105.123 95.6055 105.002C95.8711 104.881 96.0762 104.711 96.2207 104.492C96.3652 104.273 96.4375 104.02 96.4375 103.73C96.4375 103.449 96.373 103.201 96.2441 102.986C96.1152 102.771 95.9316 102.605 95.6934 102.488C95.4551 102.371 95.1758 102.312 94.8555 102.312C94.5508 102.312 94.2656 102.367 94 102.477C93.7344 102.586 93.5176 102.74 93.3496 102.939C93.1816 103.139 93.0898 103.375 93.0742 103.648H92.0547C92.0781 103.211 92.2168 102.82 92.4707 102.477C92.7246 102.133 93.0625 101.867 93.4844 101.68C93.9062 101.492 94.3672 101.398 94.8672 101.398C95.3906 101.398 95.8496 101.5 96.2441 101.703C96.6387 101.906 96.9414 102.182 97.1523 102.529C97.3633 102.877 97.4648 103.258 97.457 103.672C97.4648 103.984 97.4102 104.271 97.293 104.533C97.1758 104.795 97.0078 105.016 96.7891 105.195C96.5703 105.375 96.3125 105.508 96.0156 105.594V105.652C96.3828 105.707 96.6992 105.828 96.9648 106.016C97.2305 106.203 97.4355 106.439 97.5801 106.725C97.7246 107.01 97.793 107.332 97.7852 107.691C97.793 108.145 97.668 108.557 97.4102 108.928C97.1523 109.299 96.7969 109.59 96.3438 109.801C95.8906 110.012 95.3867 110.117 94.832 110.117ZM99.0977 107.398L102.918 101.516H103.551V102.852H103.105L100.234 107.27V107.34H105.402V108.266H99.0977V107.398ZM103.211 108.008V107.598V101.516H104.219V110H103.211V108.008Z" fill="#858899"/>
</g>
</g>
<rect x="256" y="123" width="151" height="43" rx="21.5" fill="#DDECF9"/>
<path d="M279.484 148.703H278.281V145.219H279.484V148.703ZM278.891 138.281C279.87 138.281 280.745 138.432 281.516 138.734C282.286 139.036 282.888 139.464 283.32 140.016C283.753 140.568 283.969 141.203 283.969 141.922C283.969 142.651 283.753 143.289 283.32 143.836C282.888 144.383 282.286 144.807 281.516 145.109C280.745 145.411 279.87 145.562 278.891 145.562C277.911 145.562 277.036 145.411 276.266 145.109C275.495 144.807 274.893 144.383 274.461 143.836C274.029 143.289 273.812 142.651 273.812 141.922C273.812 141.203 274.029 140.568 274.461 140.016C274.893 139.464 275.495 139.036 276.266 138.734C277.036 138.432 277.911 138.281 278.891 138.281ZM278.891 139.297C278.151 139.297 277.484 139.406 276.891 139.625C276.297 139.844 275.833 140.154 275.5 140.555C275.167 140.956 275 141.411 275 141.922C275 142.443 275.167 142.904 275.5 143.305C275.833 143.706 276.294 144.016 276.883 144.234C277.471 144.453 278.141 144.568 278.891 144.578C279.641 144.568 280.31 144.453 280.898 144.234C281.487 144.016 281.948 143.706 282.281 143.305C282.615 142.904 282.781 142.443 282.781 141.922C282.781 141.411 282.615 140.956 282.281 140.555C281.948 140.154 281.487 139.844 280.898 139.625C280.31 139.406 279.641 139.297 278.891 139.297ZM285.281 149.484H272.562V148.453H285.281V149.484ZM297.594 141.734H288.109V140.719H297.594V141.734ZM299.094 144.109H286.375V143.109H299.094V144.109ZM289.312 141.188H288.109V137.609H289.312V141.188ZM297.453 148.609H289.234V150.438H288V147.672H296.25V146.328H287.969V145.359H297.453V148.609ZM297.953 151.078H288V150.094H297.953V151.078ZM314.984 151.297H313.766V137.375H314.984V151.297ZM317.312 143.938H314.703V142.906H317.312V143.938ZM305.922 146.891C307.349 146.891 308.552 146.857 309.531 146.789C310.51 146.721 311.505 146.594 312.516 146.406L312.641 147.422C311.609 147.609 310.591 147.74 309.586 147.812C308.581 147.885 307.359 147.927 305.922 147.938H304.812V146.891H305.922ZM311.094 143.641H306.031V147.312H304.812V142.625H309.875V139.688H304.781V138.672H311.094V143.641ZM329.516 151.297H328.281V137.375H329.516V151.297ZM322.125 138.453C322.812 138.453 323.424 138.654 323.961 139.055C324.497 139.456 324.917 140.021 325.219 140.75C325.521 141.479 325.672 142.328 325.672 143.297C325.672 144.266 325.521 145.115 325.219 145.844C324.917 146.573 324.497 147.135 323.961 147.531C323.424 147.927 322.812 148.125 322.125 148.125C321.438 148.125 320.826 147.927 320.289 147.531C319.753 147.135 319.333 146.573 319.031 145.844C318.729 145.115 318.578 144.266 318.578 143.297C318.578 142.328 318.729 141.479 319.031 140.75C319.333 140.021 319.753 139.456 320.289 139.055C320.826 138.654 321.438 138.453 322.125 138.453ZM322.125 139.547C321.667 139.547 321.258 139.703 320.898 140.016C320.539 140.328 320.26 140.766 320.062 141.328C319.865 141.891 319.766 142.547 319.766 143.297C319.766 144.036 319.865 144.69 320.062 145.258C320.26 145.826 320.539 146.263 320.898 146.57C321.258 146.878 321.667 147.031 322.125 147.031C322.583 147.031 322.992 146.878 323.352 146.57C323.711 146.263 323.99 145.826 324.188 145.258C324.385 144.69 324.484 144.036 324.484 143.297C324.484 142.547 324.385 141.891 324.188 141.328C323.99 140.766 323.714 140.328 323.359 140.016C323.005 139.703 322.594 139.547 322.125 139.547ZM344.609 149.422H331.891V148.391H344.609V149.422ZM334.625 140.969H341.844V138.375H343.047V145.609H333.391V138.375H334.625V140.969ZM341.844 144.625V141.953H334.625V144.625H341.844ZM356.453 139.344C356.453 140.135 356.193 140.865 355.672 141.531C355.151 142.198 354.474 142.753 353.641 143.195C352.807 143.638 351.917 143.943 350.969 144.109L350.484 143.141C351.297 143.016 352.081 142.768 352.836 142.398C353.591 142.029 354.203 141.576 354.672 141.039C355.141 140.503 355.375 139.938 355.375 139.344V138.75H356.453V139.344ZM356.75 139.344C356.75 139.938 356.984 140.503 357.453 141.039C357.922 141.576 358.534 142.029 359.289 142.398C360.044 142.768 360.828 143.016 361.641 143.141L361.188 144.109C360.229 143.943 359.331 143.641 358.492 143.203C357.654 142.766 356.977 142.211 356.461 141.539C355.945 140.867 355.688 140.135 355.688 139.344V138.75H356.75V139.344ZM356.641 151.266H355.438V145.953H356.641V151.266ZM362.391 146.312H349.734V145.297H362.391V146.312ZM361.188 139.25H350.922V138.25H361.188V139.25ZM375.438 151.266H374.266V137.375H375.438V151.266ZM371.844 143.391H369.125V142.391H371.844V143.391ZM372.625 150.547H371.469V137.719H372.625V150.547ZM367.422 141.344C367.422 142.344 367.289 143.31 367.023 144.242C366.758 145.174 366.383 146.01 365.898 146.75C365.414 147.49 364.839 148.068 364.172 148.484L363.391 147.562C364.026 147.188 364.576 146.674 365.039 146.023C365.503 145.372 365.854 144.641 366.094 143.828C366.333 143.016 366.453 142.188 366.453 141.344V139.531H367.422V141.344ZM367.641 141.344C367.641 142.146 367.758 142.932 367.992 143.703C368.227 144.474 368.57 145.167 369.023 145.781C369.477 146.396 370.016 146.885 370.641 147.25L369.891 148.156C369.224 147.75 368.654 147.198 368.18 146.5C367.706 145.802 367.344 145.008 367.094 144.117C366.844 143.227 366.719 142.302 366.719 141.344V139.531H367.641V141.344ZM370.188 140.031H363.781V139.016H370.188V140.031ZM388.625 142.578H379.109V141.594H388.625V142.578ZM390.094 145.469H377.375V144.469H390.094V145.469ZM380.328 142.094H379.109V137.891H380.328V142.094ZM388.703 150.922H379.031V149.906H388.703V150.922ZM380.25 150.203H379.031V146.891H380.25V150.203Z" fill="black"/>
<path d="M380.879 181H379.812V173.617H379.766L377.703 174.988V173.922L379.812 172.516H380.879V181ZM383.129 180.227L386.023 177.18C386.406 176.773 386.699 176.447 386.902 176.201C387.105 175.955 387.258 175.715 387.359 175.48C387.461 175.246 387.512 175.004 387.512 174.754C387.512 174.473 387.438 174.223 387.289 174.004C387.141 173.785 386.939 173.615 386.686 173.494C386.432 173.373 386.145 173.312 385.824 173.312C385.496 173.312 385.207 173.379 384.957 173.512C384.707 173.645 384.514 173.832 384.377 174.074C384.24 174.316 384.172 174.594 384.172 174.906H383.176C383.176 174.414 383.291 173.979 383.521 173.6C383.752 173.221 384.072 172.926 384.482 172.715C384.893 172.504 385.352 172.398 385.859 172.398C386.367 172.398 386.82 172.502 387.219 172.709C387.617 172.916 387.93 173.199 388.156 173.559C388.383 173.918 388.496 174.316 388.496 174.754C388.496 175.074 388.438 175.383 388.32 175.68C388.203 175.977 388.008 176.303 387.734 176.658C387.461 177.014 387.066 177.457 386.551 177.988L384.605 179.992V180.062H388.648V181H383.141L383.129 180.227ZM390.91 179.875C390.777 179.875 390.652 179.84 390.535 179.77C390.418 179.699 390.326 179.605 390.26 179.488C390.193 179.371 390.16 179.246 390.16 179.113C390.16 178.98 390.193 178.855 390.26 178.738C390.326 178.621 390.418 178.529 390.535 178.463C390.652 178.396 390.777 178.363 390.91 178.363C391.043 178.363 391.168 178.396 391.285 178.463C391.402 178.529 391.494 178.621 391.561 178.738C391.627 178.855 391.66 178.98 391.66 179.113C391.66 179.246 391.627 179.371 391.561 179.488C391.494 179.605 391.402 179.699 391.285 179.77C391.168 179.84 391.043 179.875 390.91 179.875ZM390.91 175.164C390.777 175.164 390.652 175.129 390.535 175.059C390.418 174.988 390.326 174.895 390.26 174.777C390.193 174.66 390.16 174.535 390.16 174.402C390.16 174.27 390.193 174.145 390.26 174.027C390.326 173.91 390.418 173.818 390.535 173.752C390.652 173.686 390.777 173.652 390.91 173.652C391.043 173.652 391.168 173.686 391.285 173.752C391.402 173.818 391.494 173.91 391.561 174.027C391.627 174.145 391.66 174.27 391.66 174.402C391.66 174.535 391.627 174.66 391.561 174.777C391.494 174.895 391.402 174.988 391.285 175.059C391.168 175.129 391.043 175.164 390.91 175.164ZM396.16 181.117C395.605 181.117 395.107 181.023 394.666 180.836C394.225 180.648 393.877 180.385 393.623 180.045C393.369 179.705 393.23 179.312 393.207 178.867H394.273C394.297 179.125 394.393 179.354 394.561 179.553C394.729 179.752 394.951 179.906 395.229 180.016C395.506 180.125 395.812 180.18 396.148 180.18C396.516 180.18 396.848 180.115 397.145 179.986C397.441 179.857 397.672 179.682 397.836 179.459C398 179.236 398.082 178.98 398.082 178.691C398.082 178.379 398.002 178.104 397.842 177.865C397.682 177.627 397.447 177.441 397.139 177.309C396.83 177.176 396.457 177.109 396.02 177.109H395.328V176.184H396.02C396.363 176.184 396.668 176.123 396.934 176.002C397.199 175.881 397.404 175.711 397.549 175.492C397.693 175.273 397.766 175.02 397.766 174.73C397.766 174.449 397.701 174.201 397.572 173.986C397.443 173.771 397.26 173.605 397.021 173.488C396.783 173.371 396.504 173.312 396.184 173.312C395.879 173.312 395.594 173.367 395.328 173.477C395.062 173.586 394.846 173.74 394.678 173.939C394.51 174.139 394.418 174.375 394.402 174.648H393.383C393.406 174.211 393.545 173.82 393.799 173.477C394.053 173.133 394.391 172.867 394.812 172.68C395.234 172.492 395.695 172.398 396.195 172.398C396.719 172.398 397.178 172.5 397.572 172.703C397.967 172.906 398.27 173.182 398.48 173.529C398.691 173.877 398.793 174.258 398.785 174.672C398.793 174.984 398.738 175.271 398.621 175.533C398.504 175.795 398.336 176.016 398.117 176.195C397.898 176.375 397.641 176.508 397.344 176.594V176.652C397.711 176.707 398.027 176.828 398.293 177.016C398.559 177.203 398.764 177.439 398.908 177.725C399.053 178.01 399.121 178.332 399.113 178.691C399.121 179.145 398.996 179.557 398.738 179.928C398.48 180.299 398.125 180.59 397.672 180.801C397.219 181.012 396.715 181.117 396.16 181.117ZM403.402 181.117C402.902 181.117 402.445 181.02 402.031 180.824C401.617 180.629 401.289 180.361 401.047 180.021C400.805 179.682 400.672 179.297 400.648 178.867H401.668C401.699 179.117 401.795 179.342 401.955 179.541C402.115 179.74 402.322 179.898 402.576 180.016C402.83 180.133 403.105 180.191 403.402 180.191C403.762 180.191 404.086 180.109 404.375 179.945C404.664 179.781 404.891 179.557 405.055 179.271C405.219 178.986 405.301 178.668 405.301 178.316C405.301 177.949 405.217 177.621 405.049 177.332C404.881 177.043 404.646 176.814 404.346 176.646C404.045 176.479 403.707 176.395 403.332 176.395C402.965 176.387 402.648 176.443 402.383 176.564C402.117 176.686 401.906 176.883 401.75 177.156H400.73L401.328 172.516H405.922V173.453H402.207L401.891 175.938H401.973C402.168 175.789 402.402 175.67 402.676 175.58C402.949 175.49 403.23 175.445 403.52 175.445C404.051 175.445 404.531 175.566 404.961 175.809C405.391 176.051 405.727 176.389 405.969 176.822C406.211 177.256 406.332 177.746 406.332 178.293C406.332 178.832 406.205 179.316 405.951 179.746C405.697 180.176 405.348 180.512 404.902 180.754C404.457 180.996 403.957 181.117 403.402 181.117Z" fill="#858899"/>
<g clip-path="url(#clip3_962_5350)">
<rect x="39" y="223" width="32" height="32" rx="16" fill="#07BC0C"/>
<path d="M55 239C56.8417 239 58.3334 237.508 58.3334 235.667C58.3334 233.825 56.8417 232.333 55 232.333C53.1584 232.333 51.6667 233.825 51.6667 235.667C51.6667 237.508 53.1584 239 55 239ZM55 240.667C52.775 240.667 48.3334 241.783 48.3334 244V244.833C48.3334 245.292 48.7084 245.667 49.1667 245.667H60.8334C61.2917 245.667 61.6667 245.292 61.6667 244.833V244C61.6667 241.783 57.225 240.667 55 240.667Z" fill="white"/>
<g clip-path="url(#clip4_962_5350)">
<rect x="75" y="194" width="197" height="61" rx="24" fill="#F6F7F8"/>
<path d="M99.707 213.66H98.4062V207.449H99.707V213.66ZM101.189 211.082H99.3379V209.998H101.189V211.082ZM99.707 218.055H98.4062V215.236H92.6465V214.205H99.707V218.055ZM92.6582 211.955C93.8809 211.951 94.8242 211.928 95.4883 211.885C96.1562 211.838 96.8066 211.752 97.4395 211.627L97.5859 212.658C96.9219 212.799 96.2383 212.893 95.5352 212.939C94.8359 212.982 93.877 213.002 92.6582 212.998H91.791V211.955H92.6582ZM96.543 209.242H93.0918V212.57H91.791V208.188H96.543V209.242ZM110.6 218.061H109.311V207.449H110.6V218.061ZM109.48 212.33H107.324V211.275H109.48V212.33ZM103.041 214.539C104.037 214.543 104.885 214.525 105.584 214.486C106.283 214.447 106.986 214.371 107.693 214.258L107.828 215.307C107.094 215.42 106.361 215.498 105.631 215.541C104.904 215.584 104.041 215.605 103.041 215.605H102.209V214.539H103.041ZM107.154 209.424H103.516V214.885H102.209V208.369H107.154V209.424ZM106.744 212.359H103.205V211.328H106.744V212.359ZM120.654 217.844H113.289V216.777H120.654V217.844ZM114.596 217.141H113.289V214.773H114.596V217.141ZM121.756 214.059H112.1V213.004H121.756V214.059ZM117.549 213.42H116.266V211.404H117.549V213.42ZM117.35 208.123C117.35 208.779 117.174 209.383 116.822 209.934C116.471 210.48 115.979 210.939 115.346 211.311C114.713 211.682 113.982 211.936 113.154 212.072L112.645 211.047C113.355 210.941 113.984 210.742 114.531 210.449C115.078 210.156 115.5 209.807 115.797 209.4C116.094 208.994 116.242 208.568 116.242 208.123V207.748H117.35V208.123ZM117.566 208.123C117.566 208.584 117.713 209.02 118.006 209.43C118.299 209.836 118.719 210.182 119.266 210.467C119.812 210.752 120.447 210.945 121.17 211.047L120.666 212.072C119.834 211.928 119.1 211.674 118.463 211.311C117.83 210.947 117.338 210.492 116.986 209.945C116.635 209.398 116.459 208.791 116.459 208.123V207.748H117.566V208.123Z" fill="black"/>
<path d="M98.4844 237.703H97.2812V234.219H98.4844V237.703ZM97.8906 227.281C98.8698 227.281 99.7448 227.432 100.516 227.734C101.286 228.036 101.888 228.464 102.32 229.016C102.753 229.568 102.969 230.203 102.969 230.922C102.969 231.651 102.753 232.289 102.32 232.836C101.888 233.383 101.286 233.807 100.516 234.109C99.7448 234.411 98.8698 234.562 97.8906 234.562C96.9115 234.562 96.0365 234.411 95.2656 234.109C94.4948 233.807 93.8932 233.383 93.4609 232.836C93.0286 232.289 92.8125 231.651 92.8125 230.922C92.8125 230.203 93.0286 229.568 93.4609 229.016C93.8932 228.464 94.4948 228.036 95.2656 227.734C96.0365 227.432 96.9115 227.281 97.8906 227.281ZM97.8906 228.297C97.151 228.297 96.4844 228.406 95.8906 228.625C95.2969 228.844 94.8333 229.154 94.5 229.555C94.1667 229.956 94 230.411 94 230.922C94 231.443 94.1667 231.904 94.5 232.305C94.8333 232.706 95.2943 233.016 95.8828 233.234C96.4714 233.453 97.1406 233.568 97.8906 233.578C98.6406 233.568 99.3099 233.453 99.8984 233.234C100.487 233.016 100.948 232.706 101.281 232.305C101.615 231.904 101.781 231.443 101.781 230.922C101.781 230.411 101.615 229.956 101.281 229.555C100.948 229.154 100.487 228.844 99.8984 228.625C99.3099 228.406 98.6406 228.297 97.8906 228.297ZM104.281 238.484H91.5625V237.453H104.281V238.484ZM116.594 230.734H107.109V229.719H116.594V230.734ZM118.094 233.109H105.375V232.109H118.094V233.109ZM108.312 230.188H107.109V226.609H108.312V230.188ZM116.453 237.609H108.234V239.438H107V236.672H115.25V235.328H106.969V234.359H116.453V237.609ZM116.953 240.078H107V239.094H116.953V240.078ZM123.766 227.391C124.495 227.391 125.141 227.529 125.703 227.805C126.266 228.081 126.706 228.466 127.023 228.961C127.341 229.456 127.5 230.021 127.5 230.656C127.5 231.292 127.341 231.857 127.023 232.352C126.706 232.846 126.266 233.232 125.703 233.508C125.141 233.784 124.495 233.922 123.766 233.922C123.047 233.922 122.401 233.784 121.828 233.508C121.255 233.232 120.81 232.846 120.492 232.352C120.174 231.857 120.016 231.292 120.016 230.656C120.016 230.021 120.174 229.456 120.492 228.961C120.81 228.466 121.255 228.081 121.828 227.805C122.401 227.529 123.047 227.391 123.766 227.391ZM123.766 228.469C123.276 228.469 122.839 228.56 122.453 228.742C122.068 228.924 121.766 229.182 121.547 229.516C121.328 229.849 121.219 230.229 121.219 230.656C121.219 231.083 121.328 231.461 121.547 231.789C121.766 232.117 122.068 232.375 122.453 232.562C122.839 232.75 123.276 232.844 123.766 232.844C124.255 232.844 124.693 232.75 125.078 232.562C125.464 232.375 125.763 232.117 125.977 231.789C126.19 231.461 126.297 231.083 126.297 230.656C126.297 230.229 126.19 229.849 125.977 229.516C125.763 229.182 125.464 228.924 125.078 228.742C124.693 228.56 124.255 228.469 123.766 228.469ZM130.609 240.297H129.391V226.375H130.609V240.297ZM119.297 236.188C120.453 236.188 121.503 236.177 122.445 236.156C123.388 236.135 124.391 236.091 125.453 236.023C126.516 235.956 127.521 235.854 128.469 235.719L128.562 236.625C127.583 236.802 126.568 236.935 125.516 237.023C124.464 237.112 123.477 237.169 122.555 237.195C121.633 237.221 120.604 237.234 119.469 237.234L119.297 236.188ZM147.812 240.297H146.594V226.375H147.812V240.297ZM150.141 232.938H147.531V231.906H150.141V232.938ZM138.75 235.891C140.177 235.891 141.38 235.857 142.359 235.789C143.339 235.721 144.333 235.594 145.344 235.406L145.469 236.422C144.438 236.609 143.419 236.74 142.414 236.812C141.409 236.885 140.188 236.927 138.75 236.938H137.641V235.891H138.75ZM143.922 232.641H138.859V236.312H137.641V231.625H142.703V228.688H137.609V227.672H143.922V232.641ZM162.344 240.297H161.109V226.375H162.344V240.297ZM154.953 227.453C155.641 227.453 156.253 227.654 156.789 228.055C157.326 228.456 157.745 229.021 158.047 229.75C158.349 230.479 158.5 231.328 158.5 232.297C158.5 233.266 158.349 234.115 158.047 234.844C157.745 235.573 157.326 236.135 156.789 236.531C156.253 236.927 155.641 237.125 154.953 237.125C154.266 237.125 153.654 236.927 153.117 236.531C152.581 236.135 152.161 235.573 151.859 234.844C151.557 234.115 151.406 233.266 151.406 232.297C151.406 231.328 151.557 230.479 151.859 229.75C152.161 229.021 152.581 228.456 153.117 228.055C153.654 227.654 154.266 227.453 154.953 227.453ZM154.953 228.547C154.495 228.547 154.086 228.703 153.727 229.016C153.367 229.328 153.089 229.766 152.891 230.328C152.693 230.891 152.594 231.547 152.594 232.297C152.594 233.036 152.693 233.69 152.891 234.258C153.089 234.826 153.367 235.263 153.727 235.57C154.086 235.878 154.495 236.031 154.953 236.031C155.411 236.031 155.82 235.878 156.18 235.57C156.539 235.263 156.818 234.826 157.016 234.258C157.214 233.69 157.312 233.036 157.312 232.297C157.312 231.547 157.214 230.891 157.016 230.328C156.818 229.766 156.542 229.328 156.188 229.016C155.833 228.703 155.422 228.547 154.953 228.547ZM177.438 238.422H164.719V237.391H177.438V238.422ZM167.453 229.969H174.672V227.375H175.875V234.609H166.219V227.375H167.453V229.969ZM174.672 233.625V230.953H167.453V233.625H174.672ZM189.281 228.344C189.281 229.135 189.021 229.865 188.5 230.531C187.979 231.198 187.302 231.753 186.469 232.195C185.635 232.638 184.745 232.943 183.797 233.109L183.312 232.141C184.125 232.016 184.909 231.768 185.664 231.398C186.419 231.029 187.031 230.576 187.5 230.039C187.969 229.503 188.203 228.938 188.203 228.344V227.75H189.281V228.344ZM189.578 228.344C189.578 228.938 189.812 229.503 190.281 230.039C190.75 230.576 191.362 231.029 192.117 231.398C192.872 231.768 193.656 232.016 194.469 232.141L194.016 233.109C193.057 232.943 192.159 232.641 191.32 232.203C190.482 231.766 189.805 231.211 189.289 230.539C188.773 229.867 188.516 229.135 188.516 228.344V227.75H189.578V228.344ZM189.469 240.266H188.266V234.953H189.469V240.266ZM195.219 235.312H182.562V234.297H195.219V235.312ZM194.016 228.25H183.75V227.25H194.016V228.25ZM208.266 240.266H207.094V226.375H208.266V240.266ZM204.672 232.391H201.953V231.391H204.672V232.391ZM205.453 239.547H204.297V226.719H205.453V239.547ZM200.25 230.344C200.25 231.344 200.117 232.31 199.852 233.242C199.586 234.174 199.211 235.01 198.727 235.75C198.242 236.49 197.667 237.068 197 237.484L196.219 236.562C196.854 236.188 197.404 235.674 197.867 235.023C198.331 234.372 198.682 233.641 198.922 232.828C199.161 232.016 199.281 231.188 199.281 230.344V228.531H200.25V230.344ZM200.469 230.344C200.469 231.146 200.586 231.932 200.82 232.703C201.055 233.474 201.398 234.167 201.852 234.781C202.305 235.396 202.844 235.885 203.469 236.25L202.719 237.156C202.052 236.75 201.482 236.198 201.008 235.5C200.534 234.802 200.172 234.008 199.922 233.117C199.672 232.227 199.547 231.302 199.547 230.344V228.531H200.469V230.344ZM203.016 229.031H196.609V228.016H203.016V229.031ZM221.453 231.578H211.938V230.594H221.453V231.578ZM222.922 234.469H210.203V233.469H222.922V234.469ZM213.156 231.094H211.938V226.891H213.156V231.094ZM221.531 239.922H211.859V238.906H221.531V239.922ZM213.078 239.203H211.859V235.891H213.078V239.203ZM235.828 231.453H229.328V227.078H235.828V231.453ZM230.562 230.469H234.625V228.062H230.562V230.469ZM233.297 236.453H232.062V233.359H233.297V236.453ZM239.516 236.938H238.281V226.391H239.516V236.938ZM239.859 239.969H229.984V238.938H239.859V239.969ZM231.219 239.234H229.984V235.906H231.219V239.234ZM227.984 232.781C229.828 232.771 231.471 232.745 232.914 232.703C234.357 232.661 235.729 232.578 237.031 232.453L237.109 233.391C234.776 233.651 231.792 233.792 228.156 233.812L227.984 232.781ZM238.609 235.5H235.406V234.609H238.609V235.5ZM252.641 240.266H251.422V226.375H252.641V240.266ZM254.891 233.062H252.328V232.031H254.891V233.062ZM249.047 227.875C249.047 229.229 248.826 230.505 248.383 231.703C247.94 232.901 247.245 234.005 246.297 235.016C245.349 236.026 244.141 236.896 242.672 237.625L241.984 236.656C243.276 236.01 244.357 235.255 245.227 234.391C246.096 233.526 246.75 232.565 247.188 231.508C247.625 230.451 247.844 229.307 247.844 228.078V227.875H249.047ZM248.469 228.906H242.625V227.875H248.469V228.906Z" fill="black"/>
<path d="M79.6797 270H78.6133V262.617H78.5664L76.5039 263.988V262.922L78.6133 261.516H79.6797V270ZM81.9297 269.227L84.8242 266.18C85.207 265.773 85.5 265.447 85.7031 265.201C85.9062 264.955 86.0586 264.715 86.1602 264.48C86.2617 264.246 86.3125 264.004 86.3125 263.754C86.3125 263.473 86.2383 263.223 86.0898 263.004C85.9414 262.785 85.7402 262.615 85.4863 262.494C85.2324 262.373 84.9453 262.312 84.625 262.312C84.2969 262.312 84.0078 262.379 83.7578 262.512C83.5078 262.645 83.3145 262.832 83.1777 263.074C83.041 263.316 82.9727 263.594 82.9727 263.906H81.9766C81.9766 263.414 82.0918 262.979 82.3223 262.6C82.5527 262.221 82.873 261.926 83.2832 261.715C83.6934 261.504 84.1523 261.398 84.6602 261.398C85.168 261.398 85.6211 261.502 86.0195 261.709C86.418 261.916 86.7305 262.199 86.957 262.559C87.1836 262.918 87.2969 263.316 87.2969 263.754C87.2969 264.074 87.2383 264.383 87.1211 264.68C87.0039 264.977 86.8086 265.303 86.5352 265.658C86.2617 266.014 85.8672 266.457 85.3516 266.988L83.4062 268.992V269.062H87.4492V270H81.9414L81.9297 269.227ZM89.7109 268.875C89.5781 268.875 89.4531 268.84 89.3359 268.77C89.2188 268.699 89.127 268.605 89.0605 268.488C88.9941 268.371 88.9609 268.246 88.9609 268.113C88.9609 267.98 88.9941 267.855 89.0605 267.738C89.127 267.621 89.2188 267.529 89.3359 267.463C89.4531 267.396 89.5781 267.363 89.7109 267.363C89.8438 267.363 89.9688 267.396 90.0859 267.463C90.2031 267.529 90.2949 267.621 90.3613 267.738C90.4277 267.855 90.4609 267.98 90.4609 268.113C90.4609 268.246 90.4277 268.371 90.3613 268.488C90.2949 268.605 90.2031 268.699 90.0859 268.77C89.9688 268.84 89.8438 268.875 89.7109 268.875ZM89.7109 264.164C89.5781 264.164 89.4531 264.129 89.3359 264.059C89.2188 263.988 89.127 263.895 89.0605 263.777C88.9941 263.66 88.9609 263.535 88.9609 263.402C88.9609 263.27 88.9941 263.145 89.0605 263.027C89.127 262.91 89.2188 262.818 89.3359 262.752C89.4531 262.686 89.5781 262.652 89.7109 262.652C89.8438 262.652 89.9688 262.686 90.0859 262.752C90.2031 262.818 90.2949 262.91 90.3613 263.027C90.4277 263.145 90.4609 263.27 90.4609 263.402C90.4609 263.535 90.4277 263.66 90.3613 263.777C90.2949 263.895 90.2031 263.988 90.0859 264.059C89.9688 264.129 89.8438 264.164 89.7109 264.164ZM94.9609 270.117C94.4062 270.117 93.9082 270.023 93.4668 269.836C93.0254 269.648 92.6777 269.385 92.4238 269.045C92.1699 268.705 92.0312 268.312 92.0078 267.867H93.0742C93.0977 268.125 93.1934 268.354 93.3613 268.553C93.5293 268.752 93.752 268.906 94.0293 269.016C94.3066 269.125 94.6133 269.18 94.9492 269.18C95.3164 269.18 95.6484 269.115 95.9453 268.986C96.2422 268.857 96.4727 268.682 96.6367 268.459C96.8008 268.236 96.8828 267.98 96.8828 267.691C96.8828 267.379 96.8027 267.104 96.6426 266.865C96.4824 266.627 96.248 266.441 95.9395 266.309C95.6309 266.176 95.2578 266.109 94.8203 266.109H94.1289V265.184H94.8203C95.1641 265.184 95.4688 265.123 95.7344 265.002C96 264.881 96.2051 264.711 96.3496 264.492C96.4941 264.273 96.5664 264.02 96.5664 263.73C96.5664 263.449 96.502 263.201 96.373 262.986C96.2441 262.771 96.0605 262.605 95.8223 262.488C95.584 262.371 95.3047 262.312 94.9844 262.312C94.6797 262.312 94.3945 262.367 94.1289 262.477C93.8633 262.586 93.6465 262.74 93.4785 262.939C93.3105 263.139 93.2188 263.375 93.2031 263.648H92.1836C92.207 263.211 92.3457 262.82 92.5996 262.477C92.8535 262.133 93.1914 261.867 93.6133 261.68C94.0352 261.492 94.4961 261.398 94.9961 261.398C95.5195 261.398 95.9785 261.5 96.373 261.703C96.7676 261.906 97.0703 262.182 97.2812 262.529C97.4922 262.877 97.5938 263.258 97.5859 263.672C97.5938 263.984 97.5391 264.271 97.4219 264.533C97.3047 264.795 97.1367 265.016 96.918 265.195C96.6992 265.375 96.4414 265.508 96.1445 265.594V265.652C96.5117 265.707 96.8281 265.828 97.0938 266.016C97.3594 266.203 97.5645 266.439 97.709 266.725C97.8535 267.01 97.9219 267.332 97.9141 267.691C97.9219 268.145 97.7969 268.557 97.5391 268.928C97.2812 269.299 96.9258 269.59 96.4727 269.801C96.0195 270.012 95.5156 270.117 94.9609 270.117ZM102.391 270.117C101.844 270.109 101.34 269.98 100.879 269.73C100.418 269.48 100.039 269.057 99.7422 268.459C99.4453 267.861 99.2969 267.07 99.2969 266.086C99.2969 265.094 99.4277 264.246 99.6895 263.543C99.9512 262.84 100.322 262.307 100.803 261.943C101.283 261.58 101.855 261.398 102.52 261.398C103.012 261.398 103.451 261.492 103.838 261.68C104.225 261.867 104.543 262.131 104.793 262.471C105.043 262.811 105.203 263.203 105.273 263.648H104.23C104.16 263.391 104.051 263.162 103.902 262.963C103.754 262.764 103.562 262.609 103.328 262.5C103.094 262.391 102.824 262.336 102.52 262.336C102.059 262.336 101.662 262.463 101.33 262.717C100.998 262.971 100.742 263.34 100.562 263.824C100.383 264.309 100.293 264.891 100.293 265.57H100.398C100.562 265.336 100.756 265.135 100.979 264.967C101.201 264.799 101.449 264.67 101.723 264.58C101.996 264.49 102.281 264.445 102.578 264.445C103.078 264.445 103.541 264.566 103.967 264.809C104.393 265.051 104.729 265.385 104.975 265.811C105.221 266.236 105.344 266.719 105.344 267.258C105.344 267.789 105.221 268.273 104.975 268.711C104.729 269.148 104.381 269.492 103.932 269.742C103.482 269.992 102.969 270.117 102.391 270.117ZM102.391 269.191C102.75 269.191 103.076 269.105 103.369 268.934C103.662 268.762 103.895 268.527 104.066 268.23C104.238 267.934 104.324 267.613 104.324 267.27C104.324 266.918 104.242 266.598 104.078 266.309C103.914 266.02 103.688 265.791 103.398 265.623C103.109 265.455 102.781 265.371 102.414 265.371C102.055 265.371 101.725 265.459 101.424 265.635C101.123 265.811 100.885 266.045 100.709 266.338C100.533 266.631 100.441 266.945 100.434 267.281C100.434 267.609 100.52 267.92 100.691 268.213C100.863 268.506 101.098 268.742 101.395 268.922C101.691 269.102 102.023 269.191 102.391 269.191Z" fill="#858899"/>
</g>
</g>
<g clip-path="url(#clip5_962_5350)">
<rect x="39" y="312" width="32" height="32" rx="16" fill="#F84D3A"/>
<path d="M55 328C56.8417 328 58.3334 326.508 58.3334 324.667C58.3334 322.825 56.8417 321.333 55 321.333C53.1584 321.333 51.6667 322.825 51.6667 324.667C51.6667 326.508 53.1584 328 55 328ZM55 329.667C52.775 329.667 48.3334 330.783 48.3334 333V333.833C48.3334 334.292 48.7084 334.667 49.1667 334.667H60.8334C61.2917 334.667 61.6667 334.292 61.6667 333.833V333C61.6667 330.783 57.225 329.667 55 329.667Z" fill="white"/>
<g clip-path="url(#clip6_962_5350)">
<rect x="75" y="283" width="197" height="61" rx="24" fill="#F6F7F8"/>
<path d="M96.9941 302.361H91.8965V297.328H96.9941V302.361ZM93.1738 301.33H95.7109V298.377H93.1738V301.33ZM100.17 304.02H98.8633V296.461H100.17V304.02ZM100.469 306.762H93.1621V305.707H100.469V306.762ZM94.4746 306.176H93.1621V303.305H94.4746V306.176ZM107.195 301.506H105.895V299.525H107.195V301.506ZM110.236 300.059H102.953V299.033H110.236V300.059ZM110.148 297.873H104.26V299.596H102.953V296.824H110.148V297.873ZM111.373 301.898H101.729V300.861H111.373V301.898ZM110.178 305.162H104.154V306.24H102.865V304.242H108.889V303.545H102.859V302.578H110.178V305.162ZM110.465 306.943H102.865V305.941H110.465V306.943ZM121.152 302.871H119.904V296.461H121.152V302.871ZM119.043 302.537H117.807V296.654H119.043V302.537ZM118.158 300.182H116.354V299.109H118.158V300.182ZM116.676 302.016H112.504V297.375H116.676V302.016ZM113.734 301.025H115.463V298.371H113.734V301.025ZM117.578 303.053C118.316 303.049 118.959 303.127 119.506 303.287C120.053 303.443 120.473 303.67 120.766 303.967C121.059 304.264 121.205 304.619 121.205 305.033C121.205 305.439 121.059 305.793 120.766 306.094C120.473 306.398 120.053 306.629 119.506 306.785C118.959 306.945 118.316 307.025 117.578 307.025C116.836 307.025 116.191 306.945 115.645 306.785C115.098 306.629 114.678 306.398 114.385 306.094C114.096 305.793 113.951 305.439 113.951 305.033C113.951 304.619 114.098 304.264 114.391 303.967C114.688 303.67 115.107 303.443 115.65 303.287C116.193 303.127 116.836 303.049 117.578 303.053ZM117.578 304.055C117.09 304.055 116.67 304.092 116.318 304.166C115.971 304.24 115.705 304.352 115.521 304.5C115.342 304.645 115.252 304.822 115.252 305.033C115.252 305.244 115.342 305.426 115.521 305.578C115.705 305.727 115.971 305.84 116.318 305.918C116.666 305.992 117.086 306.029 117.578 306.029C118.066 306.029 118.482 305.992 118.826 305.918C119.174 305.84 119.439 305.727 119.623 305.578C119.811 305.426 119.904 305.244 119.904 305.033C119.904 304.822 119.811 304.645 119.623 304.5C119.439 304.352 119.174 304.24 118.826 304.166C118.479 304.092 118.062 304.055 117.578 304.055ZM131.277 307.061H129.959V296.449H131.277V307.061ZM125.57 297.223C126.102 297.223 126.576 297.377 126.994 297.686C127.412 297.99 127.738 298.426 127.973 298.992C128.207 299.555 128.324 300.211 128.324 300.961C128.324 301.715 128.207 302.375 127.973 302.941C127.738 303.504 127.412 303.939 126.994 304.248C126.576 304.557 126.102 304.711 125.57 304.711C125.035 304.711 124.559 304.557 124.141 304.248C123.723 303.939 123.395 303.504 123.156 302.941C122.922 302.375 122.805 301.715 122.805 300.961C122.805 300.211 122.922 299.555 123.156 298.992C123.395 298.426 123.723 297.99 124.141 297.686C124.559 297.377 125.035 297.223 125.57 297.223ZM125.57 298.395C125.273 298.391 125.01 298.492 124.779 298.699C124.553 298.902 124.377 299.197 124.252 299.584C124.127 299.971 124.064 300.43 124.064 300.961C124.064 301.492 124.127 301.953 124.252 302.344C124.377 302.73 124.553 303.025 124.779 303.229C125.01 303.428 125.273 303.527 125.57 303.527C125.867 303.527 126.129 303.428 126.355 303.229C126.582 303.025 126.758 302.73 126.883 302.344C127.008 301.953 127.07 301.492 127.07 300.961C127.07 300.43 127.008 299.971 126.883 299.584C126.758 299.197 126.582 298.902 126.355 298.699C126.133 298.492 125.871 298.391 125.57 298.395Z" fill="black"/>
<path d="M102.812 322.734H93.125V321.703H102.812V322.734ZM104.281 327.453H91.5625V326.438H104.281V327.453ZM98.5 326.781H97.2812V322.328H98.5V326.781ZM94.375 322.141H93.125V316.562H94.375V322.141ZM115.906 319.75H112.625V318.734H115.906V319.75ZM112.578 316.062C112.578 317.229 112.349 318.266 111.891 319.172C111.432 320.078 110.737 320.852 109.805 321.492C108.872 322.133 107.688 322.646 106.25 323.031L105.797 322.062C107.068 321.74 108.109 321.312 108.922 320.781C109.734 320.25 110.333 319.633 110.719 318.93C111.104 318.227 111.297 317.448 111.297 316.594V316.062H112.578ZM112.094 317.047H106.438V316.062H112.094V317.047ZM105.938 319.656L105.734 318.672L111.344 318.422V319.266L105.938 319.656ZM116.906 322.578H115.672V315.375H116.906V322.578ZM116.906 326.531H109.141V328.672H107.938V325.609H115.688V324.188H107.906V323.203H116.906V326.531ZM117.375 329.078H107.938V328.094H117.375V329.078ZM130.719 329.297H129.5V315.375H130.719V329.297ZM129.812 321.75H126.797V320.719H129.812V321.75ZM120.812 324.906C122.177 324.906 123.328 324.875 124.266 324.812C125.203 324.75 126.156 324.63 127.125 324.453L127.219 325.484C126.24 325.661 125.271 325.781 124.312 325.844C123.354 325.906 122.188 325.943 120.812 325.953H119.75V324.906H120.812ZM125.953 321.531H120.969V325.234H119.75V320.516H124.766V317.688H119.703V316.672H125.953V321.531ZM144.266 323.078H134.672V322.062H144.266V323.078ZM145.766 327.375H133.047V326.344H145.766V327.375ZM144.125 317.688H135.891V322.516H134.672V316.672H144.125V317.688ZM162.781 329.266H161.609V315.375H162.781V329.266ZM159.047 322.078H155.484V321.078H159.047V322.078ZM159.859 328.562H158.688V315.75H159.859V328.562ZM156.891 317.156C156.891 318.396 156.708 319.57 156.344 320.68C155.979 321.789 155.406 322.818 154.625 323.766C153.844 324.714 152.844 325.547 151.625 326.266L150.906 325.375C151.99 324.729 152.888 323.995 153.602 323.172C154.315 322.349 154.844 321.451 155.188 320.477C155.531 319.503 155.703 318.469 155.703 317.375V317.156H156.891ZM156.172 318.172H151.5V317.156H156.172V318.172ZM176.188 323.328H174.969V315.391H176.188V323.328ZM176.188 329.078H167.156V324.078H176.188V329.078ZM168.359 328.078H174.984V325.078H168.359V328.078ZM168.688 316.125C169.385 316.125 170.01 316.26 170.562 316.531C171.115 316.802 171.547 317.185 171.859 317.68C172.172 318.174 172.328 318.74 172.328 319.375C172.328 320 172.172 320.557 171.859 321.047C171.547 321.536 171.115 321.919 170.562 322.195C170.01 322.471 169.385 322.609 168.688 322.609C167.99 322.609 167.365 322.471 166.812 322.195C166.26 321.919 165.828 321.536 165.516 321.047C165.203 320.557 165.047 320 165.047 319.375C165.047 318.74 165.203 318.174 165.516 317.68C165.828 317.185 166.26 316.802 166.812 316.531C167.365 316.26 167.99 316.125 168.688 316.125ZM168.688 317.172C168.219 317.161 167.799 317.25 167.43 317.438C167.06 317.625 166.771 317.888 166.562 318.227C166.354 318.565 166.25 318.948 166.25 319.375C166.25 319.792 166.354 320.167 166.562 320.5C166.771 320.833 167.06 321.094 167.43 321.281C167.799 321.469 168.219 321.562 168.688 321.562C169.156 321.562 169.576 321.469 169.945 321.281C170.315 321.094 170.604 320.833 170.812 320.5C171.021 320.167 171.125 319.792 171.125 319.375C171.125 318.948 171.021 318.565 170.812 318.227C170.604 317.888 170.315 317.625 169.945 317.438C169.576 317.25 169.156 317.161 168.688 317.172ZM188.969 324.109C189.917 324.109 190.734 324.208 191.422 324.406C192.109 324.604 192.635 324.896 193 325.281C193.365 325.667 193.547 326.13 193.547 326.672C193.547 327.214 193.365 327.677 193 328.062C192.635 328.448 192.112 328.742 191.43 328.945C190.747 329.148 189.927 329.255 188.969 329.266C188.021 329.255 187.201 329.148 186.508 328.945C185.815 328.742 185.284 328.448 184.914 328.062C184.544 327.677 184.359 327.214 184.359 326.672C184.359 326.13 184.544 325.667 184.914 325.281C185.284 324.896 185.815 324.604 186.508 324.406C187.201 324.208 188.021 324.109 188.969 324.109ZM188.969 325.078C188.271 325.078 187.669 325.143 187.164 325.273C186.659 325.404 186.271 325.586 186 325.82C185.729 326.055 185.594 326.339 185.594 326.672C185.594 326.995 185.729 327.276 186 327.516C186.271 327.755 186.661 327.94 187.172 328.07C187.682 328.201 188.281 328.266 188.969 328.266C189.667 328.266 190.271 328.201 190.781 328.07C191.292 327.94 191.682 327.755 191.953 327.516C192.224 327.276 192.359 326.995 192.359 326.672C192.359 326.339 192.224 326.055 191.953 325.82C191.682 325.586 191.294 325.404 190.789 325.273C190.284 325.143 189.677 325.078 188.969 325.078ZM193.422 323.734H192.203V315.375H193.422V323.734ZM195.516 319.922H193.078V318.875H195.516V319.922ZM184.359 318.375H188.406V316.25H189.625V322.656H183.156V316.25H184.359V318.375ZM188.406 321.656V319.344H184.359V321.656H188.406ZM203.312 322.828H202.109V320.234H203.312V322.828ZM203.141 316.25C203.141 317.042 202.883 317.766 202.367 318.422C201.852 319.078 201.172 319.625 200.328 320.062C199.484 320.5 198.583 320.802 197.625 320.969L197.156 319.984C197.99 319.87 198.786 319.63 199.547 319.266C200.307 318.901 200.922 318.453 201.391 317.922C201.859 317.391 202.094 316.833 202.094 316.25V315.594H203.141V316.25ZM203.328 316.25C203.328 316.833 203.565 317.391 204.039 317.922C204.513 318.453 205.133 318.901 205.898 319.266C206.664 319.63 207.458 319.87 208.281 319.984L207.781 320.969C206.833 320.802 205.94 320.5 205.102 320.062C204.263 319.625 203.586 319.076 203.07 318.414C202.555 317.753 202.297 317.031 202.297 316.25V315.594H203.328V316.25ZM209.047 323.281H196.391V322.281H209.047V323.281ZM202.719 324.438C203.719 324.438 204.576 324.531 205.289 324.719C206.003 324.906 206.549 325.18 206.93 325.539C207.31 325.898 207.5 326.333 207.5 326.844C207.5 327.354 207.31 327.786 206.93 328.141C206.549 328.495 206.003 328.766 205.289 328.953C204.576 329.141 203.719 329.234 202.719 329.234C201.719 329.234 200.859 329.141 200.141 328.953C199.422 328.766 198.872 328.495 198.492 328.141C198.112 327.786 197.922 327.354 197.922 326.844C197.922 326.333 198.112 325.898 198.492 325.539C198.872 325.18 199.422 324.906 200.141 324.719C200.859 324.531 201.719 324.438 202.719 324.438ZM202.719 325.406C201.969 325.406 201.328 325.461 200.797 325.57C200.266 325.68 199.862 325.841 199.586 326.055C199.31 326.268 199.172 326.531 199.172 326.844C199.172 327.146 199.31 327.404 199.586 327.617C199.862 327.831 200.268 327.995 200.805 328.109C201.341 328.224 201.979 328.281 202.719 328.281C203.458 328.281 204.094 328.224 204.625 328.109C205.156 327.995 205.562 327.831 205.844 327.617C206.125 327.404 206.266 327.146 206.266 326.844C206.266 326.542 206.125 326.281 205.844 326.062C205.562 325.844 205.156 325.68 204.625 325.57C204.094 325.461 203.458 325.406 202.719 325.406ZM214.156 315.891C214.844 315.891 215.461 316.021 216.008 316.281C216.555 316.542 216.982 316.906 217.289 317.375C217.596 317.844 217.75 318.375 217.75 318.969C217.75 319.562 217.596 320.091 217.289 320.555C216.982 321.018 216.555 321.38 216.008 321.641C215.461 321.901 214.844 322.031 214.156 322.031C213.458 322.031 212.836 321.901 212.289 321.641C211.742 321.38 211.315 321.018 211.008 320.555C210.701 320.091 210.547 319.562 210.547 318.969C210.547 318.375 210.701 317.844 211.008 317.375C211.315 316.906 211.742 316.542 212.289 316.281C212.836 316.021 213.458 315.891 214.156 315.891ZM214.156 316.922C213.698 316.922 213.286 317.008 212.922 317.18C212.557 317.352 212.271 317.594 212.062 317.906C211.854 318.219 211.75 318.573 211.75 318.969C211.75 319.365 211.854 319.719 212.062 320.031C212.271 320.344 212.557 320.589 212.922 320.766C213.286 320.943 213.698 321.031 214.156 321.031C214.615 321.031 215.026 320.943 215.391 320.766C215.755 320.589 216.042 320.344 216.25 320.031C216.458 319.719 216.562 319.365 216.562 318.969C216.562 318.573 216.458 318.219 216.25 317.906C216.042 317.594 215.755 317.352 215.391 317.18C215.026 317.008 214.615 316.922 214.156 316.922ZM221.688 322.516H220.469V315.375H221.688V322.516ZM221.688 326.531H213.891V328.641H212.688V325.609H220.469V324.172H212.656V323.188H221.688V326.531ZM222.188 329.078H212.688V328.094H222.188V329.078ZM240.734 323.109H228.062V322.094H240.734V323.109ZM239.297 320.656H229.672V319.656H239.297V320.656ZM239.156 316.906H230.891V320.188H229.672V315.891H239.156V316.906ZM234.844 324.625C234.844 325.427 234.604 326.143 234.125 326.773C233.646 327.404 233.003 327.922 232.195 328.328C231.388 328.734 230.5 329.021 229.531 329.188L229.062 328.234C229.917 328.109 230.703 327.878 231.422 327.539C232.141 327.201 232.714 326.779 233.141 326.273C233.568 325.768 233.781 325.219 233.781 324.625V324.172H234.844V324.625ZM235.031 324.625C235.031 325.219 235.245 325.768 235.672 326.273C236.099 326.779 236.672 327.201 237.391 327.539C238.109 327.878 238.896 328.109 239.75 328.234L239.281 329.188C238.312 329.021 237.427 328.734 236.625 328.328C235.823 327.922 235.18 327.404 234.695 326.773C234.211 326.143 233.969 325.427 233.969 324.625V324.172H235.031V324.625ZM244.109 324.734C244.12 324.057 244.19 323.51 244.32 323.094C244.451 322.677 244.635 322.341 244.875 322.086C245.115 321.831 245.438 321.583 245.844 321.344C246.188 321.135 246.464 320.87 246.672 320.547C246.88 320.224 246.984 319.859 246.984 319.453C246.984 319.109 246.904 318.805 246.742 318.539C246.581 318.273 246.357 318.07 246.07 317.93C245.784 317.789 245.469 317.719 245.125 317.719C244.812 317.719 244.521 317.781 244.25 317.906C243.979 318.031 243.753 318.232 243.57 318.508C243.388 318.784 243.281 319.125 243.25 319.531H241.828C241.859 318.917 242.023 318.383 242.32 317.93C242.617 317.477 243.01 317.13 243.5 316.891C243.99 316.651 244.531 316.531 245.125 316.531C245.771 316.531 246.339 316.659 246.828 316.914C247.318 317.169 247.695 317.523 247.961 317.977C248.227 318.43 248.359 318.943 248.359 319.516C248.359 320.109 248.227 320.625 247.961 321.062C247.695 321.5 247.312 321.875 246.812 322.188C246.479 322.385 246.219 322.594 246.031 322.812C245.844 323.031 245.703 323.292 245.609 323.594C245.516 323.896 245.464 324.276 245.453 324.734V324.812H244.109V324.734ZM244.828 328.094C244.651 328.094 244.484 328.047 244.328 327.953C244.172 327.859 244.049 327.734 243.961 327.578C243.872 327.422 243.828 327.255 243.828 327.078C243.828 326.901 243.872 326.734 243.961 326.578C244.049 326.422 244.172 326.299 244.328 326.211C244.484 326.122 244.651 326.078 244.828 326.078C245.005 326.078 245.172 326.122 245.328 326.211C245.484 326.299 245.607 326.422 245.695 326.578C245.784 326.734 245.828 326.901 245.828 327.078C245.828 327.255 245.784 327.422 245.695 327.578C245.607 327.734 245.484 327.859 245.328 327.953C245.172 328.047 245.005 328.094 244.828 328.094ZM251.703 324.812H250.391L250.281 316.688H251.812L251.703 324.812ZM251.047 328.094C250.87 328.094 250.703 328.047 250.547 327.953C250.391 327.859 250.268 327.734 250.18 327.578C250.091 327.422 250.047 327.255 250.047 327.078C250.047 326.901 250.091 326.734 250.18 326.578C250.268 326.422 250.391 326.299 250.547 326.211C250.703 326.122 250.87 326.078 251.047 326.078C251.224 326.078 251.391 326.122 251.547 326.211C251.703 326.299 251.826 326.422 251.914 326.578C252.003 326.734 252.047 326.901 252.047 327.078C252.047 327.255 252.003 327.422 251.914 327.578C251.826 327.734 251.703 327.859 251.547 327.953C251.391 328.047 251.224 328.094 251.047 328.094Z" fill="black"/>
<path d="M79.6797 359H78.6133V351.617H78.5664L76.5039 352.988V351.922L78.6133 350.516H79.6797V359ZM81.9297 358.227L84.8242 355.18C85.207 354.773 85.5 354.447 85.7031 354.201C85.9062 353.955 86.0586 353.715 86.1602 353.48C86.2617 353.246 86.3125 353.004 86.3125 352.754C86.3125 352.473 86.2383 352.223 86.0898 352.004C85.9414 351.785 85.7402 351.615 85.4863 351.494C85.2324 351.373 84.9453 351.312 84.625 351.312C84.2969 351.312 84.0078 351.379 83.7578 351.512C83.5078 351.645 83.3145 351.832 83.1777 352.074C83.041 352.316 82.9727 352.594 82.9727 352.906H81.9766C81.9766 352.414 82.0918 351.979 82.3223 351.6C82.5527 351.221 82.873 350.926 83.2832 350.715C83.6934 350.504 84.1523 350.398 84.6602 350.398C85.168 350.398 85.6211 350.502 86.0195 350.709C86.418 350.916 86.7305 351.199 86.957 351.559C87.1836 351.918 87.2969 352.316 87.2969 352.754C87.2969 353.074 87.2383 353.383 87.1211 353.68C87.0039 353.977 86.8086 354.303 86.5352 354.658C86.2617 355.014 85.8672 355.457 85.3516 355.988L83.4062 357.992V358.062H87.4492V359H81.9414L81.9297 358.227ZM89.7109 357.875C89.5781 357.875 89.4531 357.84 89.3359 357.77C89.2188 357.699 89.127 357.605 89.0605 357.488C88.9941 357.371 88.9609 357.246 88.9609 357.113C88.9609 356.98 88.9941 356.855 89.0605 356.738C89.127 356.621 89.2188 356.529 89.3359 356.463C89.4531 356.396 89.5781 356.363 89.7109 356.363C89.8438 356.363 89.9688 356.396 90.0859 356.463C90.2031 356.529 90.2949 356.621 90.3613 356.738C90.4277 356.855 90.4609 356.98 90.4609 357.113C90.4609 357.246 90.4277 357.371 90.3613 357.488C90.2949 357.605 90.2031 357.699 90.0859 357.77C89.9688 357.84 89.8438 357.875 89.7109 357.875ZM89.7109 353.164C89.5781 353.164 89.4531 353.129 89.3359 353.059C89.2188 352.988 89.127 352.895 89.0605 352.777C88.9941 352.66 88.9609 352.535 88.9609 352.402C88.9609 352.27 88.9941 352.145 89.0605 352.027C89.127 351.91 89.2188 351.818 89.3359 351.752C89.4531 351.686 89.5781 351.652 89.7109 351.652C89.8438 351.652 89.9688 351.686 90.0859 351.752C90.2031 351.818 90.2949 351.91 90.3613 352.027C90.4277 352.145 90.4609 352.27 90.4609 352.402C90.4609 352.535 90.4277 352.66 90.3613 352.777C90.2949 352.895 90.2031 352.988 90.0859 353.059C89.9688 353.129 89.8438 353.164 89.7109 353.164ZM94.9609 359.117C94.4062 359.117 93.9082 359.023 93.4668 358.836C93.0254 358.648 92.6777 358.385 92.4238 358.045C92.1699 357.705 92.0312 357.312 92.0078 356.867H93.0742C93.0977 357.125 93.1934 357.354 93.3613 357.553C93.5293 357.752 93.752 357.906 94.0293 358.016C94.3066 358.125 94.6133 358.18 94.9492 358.18C95.3164 358.18 95.6484 358.115 95.9453 357.986C96.2422 357.857 96.4727 357.682 96.6367 357.459C96.8008 357.236 96.8828 356.98 96.8828 356.691C96.8828 356.379 96.8027 356.104 96.6426 355.865C96.4824 355.627 96.248 355.441 95.9395 355.309C95.6309 355.176 95.2578 355.109 94.8203 355.109H94.1289V354.184H94.8203C95.1641 354.184 95.4688 354.123 95.7344 354.002C96 353.881 96.2051 353.711 96.3496 353.492C96.4941 353.273 96.5664 353.02 96.5664 352.73C96.5664 352.449 96.502 352.201 96.373 351.986C96.2441 351.771 96.0605 351.605 95.8223 351.488C95.584 351.371 95.3047 351.312 94.9844 351.312C94.6797 351.312 94.3945 351.367 94.1289 351.477C93.8633 351.586 93.6465 351.74 93.4785 351.939C93.3105 352.139 93.2188 352.375 93.2031 352.648H92.1836C92.207 352.211 92.3457 351.82 92.5996 351.477C92.8535 351.133 93.1914 350.867 93.6133 350.68C94.0352 350.492 94.4961 350.398 94.9961 350.398C95.5195 350.398 95.9785 350.5 96.373 350.703C96.7676 350.906 97.0703 351.182 97.2812 351.529C97.4922 351.877 97.5938 352.258 97.5859 352.672C97.5938 352.984 97.5391 353.271 97.4219 353.533C97.3047 353.795 97.1367 354.016 96.918 354.195C96.6992 354.375 96.4414 354.508 96.1445 354.594V354.652C96.5117 354.707 96.8281 354.828 97.0938 355.016C97.3594 355.203 97.5645 355.439 97.709 355.725C97.8535 356.01 97.9219 356.332 97.9141 356.691C97.9219 357.145 97.7969 357.557 97.5391 357.928C97.2812 358.299 96.9258 358.59 96.4727 358.801C96.0195 359.012 95.5156 359.117 94.9609 359.117ZM102.391 359.117C101.844 359.109 101.34 358.98 100.879 358.73C100.418 358.48 100.039 358.057 99.7422 357.459C99.4453 356.861 99.2969 356.07 99.2969 355.086C99.2969 354.094 99.4277 353.246 99.6895 352.543C99.9512 351.84 100.322 351.307 100.803 350.943C101.283 350.58 101.855 350.398 102.52 350.398C103.012 350.398 103.451 350.492 103.838 350.68C104.225 350.867 104.543 351.131 104.793 351.471C105.043 351.811 105.203 352.203 105.273 352.648H104.23C104.16 352.391 104.051 352.162 103.902 351.963C103.754 351.764 103.562 351.609 103.328 351.5C103.094 351.391 102.824 351.336 102.52 351.336C102.059 351.336 101.662 351.463 101.33 351.717C100.998 351.971 100.742 352.34 100.562 352.824C100.383 353.309 100.293 353.891 100.293 354.57H100.398C100.562 354.336 100.756 354.135 100.979 353.967C101.201 353.799 101.449 353.67 101.723 353.58C101.996 353.49 102.281 353.445 102.578 353.445C103.078 353.445 103.541 353.566 103.967 353.809C104.393 354.051 104.729 354.385 104.975 354.811C105.221 355.236 105.344 355.719 105.344 356.258C105.344 356.789 105.221 357.273 104.975 357.711C104.729 358.148 104.381 358.492 103.932 358.742C103.482 358.992 102.969 359.117 102.391 359.117ZM102.391 358.191C102.75 358.191 103.076 358.105 103.369 357.934C103.662 357.762 103.895 357.527 104.066 357.23C104.238 356.934 104.324 356.613 104.324 356.27C104.324 355.918 104.242 355.598 104.078 355.309C103.914 355.02 103.688 354.791 103.398 354.623C103.109 354.455 102.781 354.371 102.414 354.371C102.055 354.371 101.725 354.459 101.424 354.635C101.123 354.811 100.885 355.045 100.709 355.338C100.533 355.631 100.441 355.945 100.434 356.281C100.434 356.609 100.52 356.92 100.691 357.213C100.863 357.506 101.098 357.742 101.395 357.922C101.691 358.102 102.023 358.191 102.391 358.191Z" fill="#858899"/>
</g>
</g>
<rect width="400" height="60" transform="translate(23 378)" fill="white"/>
<rect x="31" y="386" width="384" height="44" rx="22" fill="#F6F7F8"/>
<path d="M56 405.062H53.5938V404.031H56V405.062ZM49.0938 407.125C50.2604 407.125 51.2083 407.099 51.9375 407.047C52.6667 406.995 53.401 406.896 54.1406 406.75L54.2656 407.766C53.5052 407.911 52.7578 408.008 52.0234 408.055C51.2891 408.102 50.3125 408.125 49.0938 408.125H48.2188V407.125H49.0938ZM53.5156 402.375H49.3906V407.562H48.2188V401.375H53.5156V402.375ZM52.9375 405.172H49.0156V404.188H52.9375V405.172ZM59.3594 414.266H58.1562V410.641H49.9375V409.625H59.3594V414.266ZM59.3594 408.969H58.1875V400.391H59.3594V408.969ZM56.6562 408.875H55.4688V400.688H56.6562V408.875ZM68.1094 402.422C68.1094 403.38 67.8385 404.276 67.2969 405.109C66.7552 405.943 66.0547 406.646 65.1953 407.219C64.3359 407.792 63.4323 408.188 62.4844 408.406L61.9219 407.375C62.7448 407.208 63.5521 406.883 64.3438 406.398C65.1354 405.914 65.7812 405.32 66.2812 404.617C66.7812 403.914 67.0312 403.182 67.0312 402.422V401.359H68.1094V402.422ZM68.3125 402.422C68.3125 403.172 68.5677 403.901 69.0781 404.609C69.5885 405.318 70.2422 405.917 71.0391 406.406C71.8359 406.896 72.6406 407.219 73.4531 407.375L72.8906 408.406C71.9531 408.188 71.0547 407.794 70.1953 407.227C69.3359 406.659 68.6328 405.956 68.0859 405.117C67.5391 404.279 67.2656 403.38 67.2656 402.422V401.359H68.3125V402.422ZM74.1094 412.375H61.3906V411.359H74.1094V412.375ZM86.4688 408.891H76.8594V407.891H86.4688V408.891ZM87.9375 412.453H75.2188V411.438H87.9375V412.453ZM86.3125 402.609H78.1094V408.188H76.8594V401.578H86.3125V402.609ZM86.0156 405.656H77.7188V404.672H86.0156V405.656ZM104.531 407.828H103.312V400.375H104.531V407.828ZM96.75 410.219H103.312V408.531H104.531V414.078H95.5312V408.531H96.75V410.219ZM103.312 413.078V411.203H96.75V413.078H103.312ZM97.0312 401.062C97.7292 401.052 98.3542 401.18 98.9062 401.445C99.4583 401.711 99.8906 402.089 100.203 402.578C100.516 403.068 100.672 403.625 100.672 404.25C100.672 404.865 100.516 405.414 100.203 405.898C99.8906 406.383 99.4583 406.76 98.9062 407.031C98.3542 407.302 97.7292 407.438 97.0312 407.438C96.3333 407.438 95.7083 407.302 95.1562 407.031C94.6042 406.76 94.1719 406.383 93.8594 405.898C93.5469 405.414 93.3906 404.865 93.3906 404.25C93.3906 403.625 93.5469 403.068 93.8594 402.578C94.1719 402.089 94.6042 401.711 95.1562 401.445C95.7083 401.18 96.3333 401.052 97.0312 401.062ZM97.0312 402.094C96.5625 402.083 96.1432 402.172 95.7734 402.359C95.4036 402.547 95.1146 402.805 94.9062 403.133C94.6979 403.461 94.5938 403.833 94.5938 404.25C94.5938 404.667 94.6979 405.039 94.9062 405.367C95.1146 405.695 95.4036 405.953 95.7734 406.141C96.1432 406.328 96.5625 406.422 97.0312 406.422C97.5 406.422 97.9193 406.328 98.2891 406.141C98.6589 405.953 98.9479 405.695 99.1562 405.367C99.3646 405.039 99.4688 404.667 99.4688 404.25C99.4688 403.833 99.3646 403.461 99.1562 403.133C98.9479 402.805 98.6589 402.547 98.2891 402.359C97.9193 402.172 97.5 402.083 97.0312 402.094ZM108.469 407.281C109.979 407.281 111.13 407.26 111.922 407.219C112.714 407.177 113.505 407.083 114.297 406.938L114.422 407.953C113.599 408.089 112.773 408.177 111.945 408.219C111.117 408.26 109.958 408.281 108.469 408.281H107.484V407.281H108.469ZM113.484 405.125H108.703V407.875H107.484V404.188H112.266V402.219H107.453V401.234H113.484V405.125ZM118.406 408.922H117.172V400.391H118.406V408.922ZM117.469 403.453H114.406V402.453H117.469V403.453ZM117.469 406.344H114.406V405.328H117.469V406.344ZM118.406 414.297H117.172V410.672H109.047V409.672H118.406V414.297Z" fill="black"/>
<rect x="375" y="390" width="36" height="36" rx="18" fill="#117CE9"/>
<path d="M385.833 415L400.375 408.767C401.05 408.475 401.05 407.525 400.375 407.233L385.833 401C385.283 400.758 384.675 401.167 384.675 401.758L384.667 405.6C384.667 406.017 384.975 406.375 385.392 406.425L397.167 408L385.392 409.567C384.975 409.625 384.667 409.983 384.667 410.4L384.675 414.242C384.675 414.833 385.283 415.242 385.833 415Z" fill="white"/>
</g>
</g>
<defs>
<filter id="filter0_d_962_5350" x="0" y="0" width="446" height="462" filterUnits="userSpaceOnUse" color-interpolation-filters="sRGB">
<feFlood flood-opacity="0" result="BackgroundImageFix"/>
<feColorMatrix in="SourceAlpha" type="matrix" values="0 0 0 0 0 0 0 0 0 0 0 0 0 0 0 0 0 0 127 0" result="hardAlpha"/>
<feOffset dy="1"/>
<feGaussianBlur stdDeviation="11.5"/>
<feComposite in2="hardAlpha" operator="out"/>
<feColorMatrix type="matrix" values="0 0 0 0 0 0 0 0 0 0 0 0 0 0 0 0 0 0 0.05 0"/>
<feBlend mode="normal" in2="BackgroundImageFix" result="effect1_dropShadow_962_5350"/>
<feBlend mode="normal" in="SourceGraphic" in2="effect1_dropShadow_962_5350" result="shape"/>
</filter>
<clipPath id="clip0_962_5350">
<rect x="23" y="22" width="400" height="416" rx="20" fill="white"/>
</clipPath>
<clipPath id="clip1_962_5350">
<rect width="233" height="77" fill="white" transform="translate(39 34)"/>
</clipPath>
<clipPath id="clip2_962_5350">
<rect width="197" height="77" fill="white" transform="translate(75 34)"/>
</clipPath>
<clipPath id="clip3_962_5350">
<rect width="233" height="77" fill="white" transform="translate(39 194)"/>
</clipPath>
<clipPath id="clip4_962_5350">
<rect width="197" height="77" fill="white" transform="translate(75 194)"/>
</clipPath>
<clipPath id="clip5_962_5350">
<rect width="233" height="77" fill="white" transform="translate(39 283)"/>
</clipPath>
<clipPath id="clip6_962_5350">
<rect width="197" height="77" fill="white" transform="translate(75 283)"/>
</clipPath>
</defs>
</svg>
