<svg width="395" height="289" viewBox="0 0 395 289" fill="none" xmlns="http://www.w3.org/2000/svg">
<g filter="url(#filter0_d_961_5197)">
<g clip-path="url(#clip0_961_5197)">
<rect x="23" y="22" width="349" height="243" rx="20" fill="white"/>
<g clip-path="url(#clip1_961_5197)">
<rect x="39" y="55" width="40" height="40" rx="20" fill="#023A73"/>
<path d="M59 74.9998C61.5783 74.9998 63.6666 72.9115 63.6666 70.3332C63.6666 67.7548 61.5783 65.6665 59 65.6665C56.4216 65.6665 54.3333 67.7548 54.3333 70.3332C54.3333 72.9115 56.4216 74.9998 59 74.9998ZM59 77.3332C55.885 77.3332 49.6666 78.8965 49.6666 81.9998V83.1665C49.6666 83.8082 50.1916 84.3332 50.8333 84.3332H67.1666C67.8083 84.3332 68.3333 83.8082 68.3333 83.1665V81.9998C68.3333 78.8965 62.115 77.3332 59 77.3332Z" fill="white"/>
<g clip-path="url(#clip2_961_5197)">
<rect x="83" y="34" width="147" height="61" rx="24" fill="#F6F7F8"/>
<path d="M109.037 56.7656H99.3574V55.6758H109.037V56.7656ZM108.188 49.4824H100.143V48.4277H108.188V49.4824ZM108.146 53.8887H100.184V52.8457H108.146V53.8887ZM102.979 52.957H101.672V49.377H102.979V52.957ZM106.641 52.957H105.357V49.377H106.641V52.957ZM118.529 55.2539H117.234V47.4609H118.529V55.2539ZM118.822 57.8438H111.469V56.7773H118.822V57.8438ZM112.775 57.3223H111.469V54.6211H112.775V57.3223ZM111.188 52.7871C112.344 52.7871 113.287 52.7637 114.018 52.7168C114.748 52.6699 115.479 52.5801 116.209 52.4473L116.344 53.502C115.59 53.6348 114.834 53.7266 114.076 53.7773C113.322 53.8281 112.359 53.8535 111.188 53.8535H110.279V52.7871H111.188ZM115.143 51.4453H111.557V53.1035H110.279V50.4609H113.854V49.2129H110.268V48.1758H115.143V51.4453ZM126.193 52.1719H124.295V51.0996H126.193V52.1719ZM123.146 50.2852C123.146 51.082 123.057 51.8438 122.877 52.5703C122.701 53.293 122.432 53.9414 122.068 54.5156C121.705 55.0859 121.258 55.5332 120.727 55.8574L119.924 54.8906C120.416 54.5898 120.828 54.1953 121.16 53.707C121.492 53.2188 121.738 52.6836 121.898 52.1016C122.062 51.5195 122.145 50.9141 122.145 50.2852V48.3926H123.146V50.2852ZM123.404 50.2324C123.404 50.8379 123.475 51.416 123.615 51.9668C123.76 52.5137 123.982 53.0195 124.283 53.4844C124.588 53.9492 124.969 54.3262 125.426 54.6152L124.711 55.623C124.184 55.3066 123.75 54.8672 123.41 54.3047C123.07 53.7422 122.82 53.1172 122.66 52.4297C122.5 51.7422 122.42 51.0098 122.42 50.2324V48.3926H123.404V50.2324ZM129.234 58.0312H127.98V47.4492H129.234V58.0312ZM127.025 57.5332H125.807V47.6309H127.025V57.5332ZM135.697 48.8965C135.697 49.6504 135.508 50.3574 135.129 51.0176C134.754 51.6777 134.234 52.2383 133.57 52.6992C132.91 53.1602 132.162 53.4785 131.326 53.6543L130.764 52.5703C131.479 52.4336 132.125 52.1797 132.703 51.8086C133.285 51.4375 133.738 50.9961 134.062 50.4844C134.391 49.9727 134.555 49.4434 134.555 48.8965V48.123H135.697V48.8965ZM135.932 48.8965C135.932 49.4434 136.096 49.9746 136.424 50.4902C136.756 51.002 137.213 51.4453 137.795 51.8203C138.381 52.1914 139.033 52.4414 139.752 52.5703L139.172 53.6543C138.344 53.4785 137.6 53.1621 136.939 52.7051C136.279 52.248 135.76 51.6914 135.381 51.0352C135.006 50.375 134.818 49.6621 134.818 48.8965V48.123H135.932V48.8965ZM140.15 56.6895H130.471V55.6172H140.15V56.6895ZM149.303 48.0938C149.303 49 149.105 49.8164 148.711 50.543C148.316 51.2656 147.742 51.8828 146.988 52.3945C146.238 52.9023 145.336 53.2969 144.281 53.5781L143.771 52.5527C144.658 52.3223 145.41 52.0176 146.027 51.6387C146.648 51.2598 147.121 50.8223 147.445 50.3262C147.77 49.8262 147.932 49.2871 147.932 48.709V48.0938H149.303ZM148.74 49.1191H144.369V48.0938H148.74V49.1191ZM152.514 53.3906H151.207V47.4609H152.514V53.3906ZM152.514 57.9082H145.518V53.8535H152.514V57.9082ZM146.807 56.8711H151.236V54.8789H146.807V56.8711ZM160.271 50.2676H158.385V49.2246H160.271V50.2676ZM157.09 48.7148C157.09 49.332 157.002 49.9199 156.826 50.4785C156.65 51.0332 156.385 51.5332 156.029 51.9785C155.674 52.4199 155.234 52.7656 154.711 53.0156L153.973 52.0312C154.438 51.8203 154.826 51.541 155.139 51.1934C155.455 50.8418 155.689 50.4551 155.842 50.0332C155.994 49.6074 156.07 49.168 156.07 48.7148V47.8652H157.09V48.7148ZM157.336 48.7441C157.336 49.166 157.408 49.5723 157.553 49.9629C157.697 50.3496 157.916 50.6973 158.209 51.0059C158.502 51.3105 158.863 51.5527 159.293 51.7324L158.613 52.6992C158.098 52.4844 157.672 52.1816 157.336 51.791C157.004 51.3965 156.76 50.9414 156.604 50.4258C156.447 49.9062 156.369 49.3457 156.369 48.7441V47.8652H157.336V48.7441ZM163.125 53.0273H161.883V47.4609H163.125V53.0273ZM161.004 52.9746H159.762V47.6309H161.004V52.9746ZM163.125 56.1328H157.266V57.5156H155.971V55.1602H161.836V54.4453H155.953V53.4316H163.125V56.1328ZM163.506 57.9492H155.971V56.9121H163.506V57.9492ZM173.244 55.2539H171.949V47.4609H173.244V55.2539ZM173.537 57.8438H166.184V56.7773H173.537V57.8438ZM167.49 57.3223H166.184V54.6211H167.49V57.3223ZM165.902 52.7871C167.059 52.7871 168.002 52.7637 168.732 52.7168C169.463 52.6699 170.193 52.5801 170.924 52.4473L171.059 53.502C170.305 53.6348 169.549 53.7266 168.791 53.7773C168.037 53.8281 167.074 53.8535 165.902 53.8535H164.994V52.7871H165.902ZM169.857 51.4453H166.271V53.1035H164.994V50.4609H168.568V49.2129H164.982V48.1758H169.857V51.4453Z" fill="black"/>
<path d="M104.016 70.1094C104.016 71.1094 103.846 72.0885 103.508 73.0469C103.169 74.0052 102.706 74.8542 102.117 75.5938C101.529 76.3333 100.87 76.901 100.141 77.2969L99.3594 76.3125C100.036 75.9792 100.651 75.4844 101.203 74.8281C101.755 74.1719 102.195 73.4271 102.523 72.5938C102.852 71.7604 103.016 70.9323 103.016 70.1094V67.5781H104.016V70.1094ZM104.219 70.1094C104.219 70.901 104.38 71.6953 104.703 72.4922C105.026 73.2891 105.464 74 106.016 74.625C106.568 75.25 107.167 75.724 107.812 76.0469L107.062 77.0312C106.344 76.6458 105.693 76.0964 105.109 75.3828C104.526 74.6693 104.068 73.8516 103.734 72.9297C103.401 72.0078 103.234 71.0677 103.234 70.1094V67.5781H104.219V70.1094ZM110.312 80.2656H109.094V66.375H110.312V80.2656ZM112.641 73.0781H110.031V72.0156H112.641V73.0781ZM117.875 69.0156C117.875 69.849 117.714 70.6302 117.391 71.3594C117.068 72.0885 116.612 72.724 116.023 73.2656C115.435 73.8073 114.75 74.2188 113.969 74.5L113.344 73.5156C114.031 73.276 114.643 72.9297 115.18 72.4766C115.716 72.0234 116.135 71.4974 116.438 70.8984C116.74 70.2995 116.891 69.6719 116.891 69.0156V67.875H117.875V69.0156ZM118.094 69.0156C118.094 69.6094 118.237 70.1797 118.523 70.7266C118.81 71.2734 119.208 71.7526 119.719 72.1641C120.229 72.5755 120.823 72.8958 121.5 73.125L120.922 74.0938C120.151 73.8333 119.479 73.4531 118.906 72.9531C118.333 72.4531 117.888 71.8646 117.57 71.1875C117.253 70.5104 117.094 69.7865 117.094 69.0156V67.875H118.094V69.0156ZM121.219 68.4219H113.719V67.4062H121.219V68.4219ZM124.25 74.7656H123.031V66.375H124.25V74.7656ZM126.344 70.9531H123.906V69.9219H126.344V70.9531ZM119.797 75.1406C120.745 75.1406 121.562 75.2396 122.25 75.4375C122.938 75.6354 123.464 75.9245 123.828 76.3047C124.193 76.6849 124.375 77.1406 124.375 77.6719C124.375 78.2031 124.193 78.6615 123.828 79.0469C123.464 79.4323 122.938 79.7266 122.25 79.9297C121.562 80.1328 120.745 80.2344 119.797 80.2344C118.849 80.2344 118.029 80.1328 117.336 79.9297C116.643 79.7266 116.112 79.4323 115.742 79.0469C115.372 78.6615 115.188 78.2031 115.188 77.6719C115.188 77.1406 115.372 76.6849 115.742 76.3047C116.112 75.9245 116.643 75.6354 117.336 75.4375C118.029 75.2396 118.849 75.1406 119.797 75.1406ZM119.797 76.125C119.109 76.125 118.51 76.1849 118 76.3047C117.49 76.4245 117.099 76.6016 116.828 76.8359C116.557 77.0703 116.422 77.349 116.422 77.6719C116.422 77.9948 116.557 78.276 116.828 78.5156C117.099 78.7552 117.487 78.9375 117.992 79.0625C118.497 79.1875 119.099 79.25 119.797 79.25C120.505 79.25 121.112 79.1875 121.617 79.0625C122.122 78.9375 122.51 78.7552 122.781 78.5156C123.052 78.276 123.188 77.9948 123.188 77.6719C123.188 77.349 123.052 77.0703 122.781 76.8359C122.51 76.6016 122.12 76.4245 121.609 76.3047C121.099 76.1849 120.495 76.125 119.797 76.125ZM138.672 74.2656H137.469V66.375H138.672V74.2656ZM129.328 72.8281H128.094V67.2031H129.328V72.8281ZM129.219 72.1562C130.458 72.1562 131.612 72.1068 132.68 72.0078C133.747 71.9089 134.818 71.7448 135.891 71.5156L136.078 72.5469C134.943 72.776 133.828 72.9401 132.734 73.0391C131.641 73.138 130.469 73.1927 129.219 73.2031H128.094V72.1562H129.219ZM138.672 80.0781H129.656V74.9062H138.672V80.0781ZM130.859 79.0781H137.469V75.8906H130.859V79.0781ZM155.922 76.625H154.703V66.375H155.922V76.625ZM158.016 71.6406H155.531V70.6094H158.016V71.6406ZM156.562 79.9688H147.234V78.9375H156.562V79.9688ZM148.438 79.3438H147.234V75.5625H148.438V79.3438ZM148.969 67.3594C149.656 67.3594 150.279 67.5052 150.836 67.7969C151.393 68.0885 151.831 68.4922 152.148 69.0078C152.466 69.5234 152.625 70.1146 152.625 70.7812C152.625 71.4375 152.466 72.026 152.148 72.5469C151.831 73.0677 151.393 73.474 150.836 73.7656C150.279 74.0573 149.656 74.2031 148.969 74.2031C148.281 74.2031 147.661 74.0573 147.109 73.7656C146.557 73.474 146.122 73.0677 145.805 72.5469C145.487 72.026 145.328 71.4375 145.328 70.7812C145.328 70.1146 145.487 69.5234 145.805 69.0078C146.122 68.4922 146.557 68.0885 147.109 67.7969C147.661 67.5052 148.281 67.3594 148.969 67.3594ZM148.969 68.4375C148.521 68.4375 148.109 68.5365 147.734 68.7344C147.359 68.9323 147.065 69.2109 146.852 69.5703C146.638 69.9297 146.531 70.3333 146.531 70.7812C146.531 71.2292 146.638 71.6302 146.852 71.9844C147.065 72.3385 147.359 72.6172 147.734 72.8203C148.109 73.0234 148.521 73.125 148.969 73.125C149.438 73.125 149.857 73.0234 150.227 72.8203C150.596 72.6172 150.888 72.3385 151.102 71.9844C151.315 71.6302 151.422 71.2292 151.422 70.7812C151.422 70.3229 151.315 69.9167 151.102 69.5625C150.888 69.2083 150.596 68.9323 150.227 68.7344C149.857 68.5365 149.438 68.4375 148.969 68.4375ZM160.969 73.2188H159.719V67.2344H160.969V73.2188ZM160.781 72.9219C162.062 72.9323 163.167 72.901 164.094 72.8281C165.021 72.7552 165.958 72.6198 166.906 72.4219L167.062 73.4375C166.073 73.6354 165.102 73.7734 164.148 73.8516C163.195 73.9297 162.073 73.9635 160.781 73.9531H159.719V72.9219H160.781ZM170.406 74.9062H169.172V66.375H170.406V74.9062ZM169.516 69.0156H165.188V68.0312H169.516V69.0156ZM169.516 71.4688H165.188V70.5H169.516V71.4688ZM165.797 75.0156C166.755 75.0156 167.586 75.1198 168.289 75.3281C168.992 75.5365 169.529 75.8385 169.898 76.2344C170.268 76.6302 170.453 77.1042 170.453 77.6562C170.453 78.1979 170.268 78.6641 169.898 79.0547C169.529 79.4453 168.995 79.7422 168.297 79.9453C167.599 80.1484 166.766 80.2552 165.797 80.2656C164.839 80.2552 164.01 80.1484 163.312 79.9453C162.615 79.7422 162.078 79.4453 161.703 79.0547C161.328 78.6641 161.141 78.1979 161.141 77.6562C161.141 77.1042 161.328 76.6302 161.703 76.2344C162.078 75.8385 162.615 75.5365 163.312 75.3281C164.01 75.1198 164.839 75.0156 165.797 75.0156ZM165.797 76C165.099 76 164.49 76.0651 163.969 76.1953C163.448 76.3255 163.049 76.5156 162.773 76.7656C162.497 77.0156 162.359 77.3125 162.359 77.6562C162.359 77.9792 162.497 78.263 162.773 78.5078C163.049 78.7526 163.448 78.9401 163.969 79.0703C164.49 79.2005 165.099 79.2656 165.797 79.2656C166.505 79.2656 167.117 79.2005 167.633 79.0703C168.148 78.9401 168.544 78.7526 168.82 78.5078C169.096 78.263 169.234 77.9792 169.234 77.6562C169.234 77.3125 169.096 77.0156 168.82 76.7656C168.544 76.5156 168.148 76.3255 167.633 76.1953C167.117 76.0651 166.505 76 165.797 76ZM183.469 80.2656H182.25V66.375H183.469V80.2656ZM185.797 73.125H183.188V72.1094H185.797V73.125ZM180.906 69.625H172.641V68.6094H180.906V69.625ZM176.844 70.7812C177.5 70.7812 178.086 70.9167 178.602 71.1875C179.117 71.4583 179.521 71.8359 179.812 72.3203C180.104 72.8047 180.25 73.3542 180.25 73.9688C180.25 74.5833 180.104 75.1328 179.812 75.6172C179.521 76.1016 179.117 76.4792 178.602 76.75C178.086 77.0208 177.5 77.1562 176.844 77.1562C176.188 77.1562 175.602 77.0208 175.086 76.75C174.57 76.4792 174.167 76.1016 173.875 75.6172C173.583 75.1328 173.438 74.5833 173.438 73.9688C173.438 73.3542 173.583 72.8047 173.875 72.3203C174.167 71.8359 174.57 71.4583 175.086 71.1875C175.602 70.9167 176.188 70.7812 176.844 70.7812ZM176.844 71.8125C176.417 71.8125 176.034 71.9036 175.695 72.0859C175.357 72.2682 175.091 72.5234 174.898 72.8516C174.706 73.1797 174.609 73.5521 174.609 73.9688C174.609 74.3854 174.706 74.7552 174.898 75.0781C175.091 75.401 175.357 75.6536 175.695 75.8359C176.034 76.0182 176.417 76.1094 176.844 76.1094C177.271 76.1094 177.654 76.0182 177.992 75.8359C178.331 75.6536 178.596 75.401 178.789 75.0781C178.982 74.7552 179.078 74.3854 179.078 73.9688C179.078 73.5521 178.982 73.1797 178.789 72.8516C178.596 72.5234 178.331 72.2682 177.992 72.0859C177.654 71.9036 177.271 71.8125 176.844 71.8125ZM177.438 69.0781H176.219V66.5469H177.438V69.0781ZM194.797 72.4062H192.062V71.3594H194.797V72.4062ZM190.453 70.375C190.453 71.3229 190.32 72.25 190.055 73.1562C189.789 74.0625 189.409 74.8724 188.914 75.5859C188.419 76.2995 187.839 76.8594 187.172 77.2656L186.391 76.3438C187.016 75.9792 187.562 75.4792 188.031 74.8438C188.5 74.2083 188.859 73.5026 189.109 72.7266C189.359 71.9505 189.484 71.1667 189.484 70.375V67.6875H190.453V70.375ZM190.672 70.3281C190.672 71.0677 190.789 71.8073 191.023 72.5469C191.258 73.2865 191.596 73.9609 192.039 74.5703C192.482 75.1797 193 75.6615 193.594 76.0156L192.891 76.9688C192.234 76.5729 191.669 76.0234 191.195 75.3203C190.721 74.6172 190.359 73.8333 190.109 72.9688C189.859 72.1042 189.734 71.224 189.734 70.3281V67.6875H190.672V70.3281ZM198.453 80.2656H197.266V66.375H198.453V80.2656ZM195.578 79.5625H194.422V66.6719H195.578V79.5625ZM204.734 77.7031H203.531V73.5469H204.734V77.7031ZM209.938 77.7031H208.703V73.5469H209.938V77.7031ZM213.094 78.4844H200.375V77.4531H213.094V78.4844ZM206.703 67.25C207.693 67.25 208.57 67.3984 209.336 67.6953C210.102 67.9922 210.701 68.4115 211.133 68.9531C211.565 69.4948 211.781 70.1198 211.781 70.8281C211.781 71.5365 211.565 72.1589 211.133 72.6953C210.701 73.2318 210.102 73.6484 209.336 73.9453C208.57 74.2422 207.693 74.3906 206.703 74.3906C205.724 74.3906 204.849 74.2422 204.078 73.9453C203.307 73.6484 202.706 73.2318 202.273 72.6953C201.841 72.1589 201.625 71.5365 201.625 70.8281C201.625 70.1198 201.841 69.4948 202.273 68.9531C202.706 68.4115 203.307 67.9922 204.078 67.6953C204.849 67.3984 205.724 67.25 206.703 67.25ZM206.703 68.2656C205.953 68.2552 205.284 68.3568 204.695 68.5703C204.107 68.7839 203.646 69.0859 203.312 69.4766C202.979 69.8672 202.812 70.3177 202.812 70.8281C202.812 71.3385 202.979 71.7891 203.312 72.1797C203.646 72.5703 204.107 72.875 204.695 73.0938C205.284 73.3125 205.953 73.4219 206.703 73.4219C207.453 73.4219 208.122 73.3125 208.711 73.0938C209.299 72.875 209.76 72.5703 210.094 72.1797C210.427 71.7891 210.594 71.3385 210.594 70.8281C210.594 70.3177 210.427 69.8672 210.094 69.4766C209.76 69.0859 209.299 68.7839 208.711 68.5703C208.122 68.3568 207.453 68.2552 206.703 68.2656ZM215.672 79.0938C215.495 79.0938 215.328 79.0469 215.172 78.9531C215.016 78.8594 214.893 78.7344 214.805 78.5781C214.716 78.4219 214.672 78.2552 214.672 78.0781C214.672 77.901 214.716 77.7344 214.805 77.5781C214.893 77.4219 215.016 77.2995 215.172 77.2109C215.328 77.1224 215.495 77.0781 215.672 77.0781C215.849 77.0781 216.016 77.1224 216.172 77.2109C216.328 77.2995 216.451 77.4219 216.539 77.5781C216.628 77.7344 216.672 77.901 216.672 78.0781C216.672 78.2552 216.628 78.4219 216.539 78.5781C216.451 78.7344 216.328 78.8594 216.172 78.9531C216.016 79.0469 215.849 79.0938 215.672 79.0938Z" fill="black"/>
</g>
<path d="M87.5508 110H86.4844V102.617H86.4375L84.375 103.988V102.922L86.4844 101.516H87.5508V110ZM89.8008 109.227L92.6953 106.18C93.0781 105.773 93.3711 105.447 93.5742 105.201C93.7773 104.955 93.9297 104.715 94.0312 104.48C94.1328 104.246 94.1836 104.004 94.1836 103.754C94.1836 103.473 94.1094 103.223 93.9609 103.004C93.8125 102.785 93.6113 102.615 93.3574 102.494C93.1035 102.373 92.8164 102.312 92.4961 102.312C92.168 102.312 91.8789 102.379 91.6289 102.512C91.3789 102.645 91.1855 102.832 91.0488 103.074C90.9121 103.316 90.8438 103.594 90.8438 103.906H89.8477C89.8477 103.414 89.9629 102.979 90.1934 102.6C90.4238 102.221 90.7441 101.926 91.1543 101.715C91.5645 101.504 92.0234 101.398 92.5312 101.398C93.0391 101.398 93.4922 101.502 93.8906 101.709C94.2891 101.916 94.6016 102.199 94.8281 102.559C95.0547 102.918 95.168 103.316 95.168 103.754C95.168 104.074 95.1094 104.383 94.9922 104.68C94.875 104.977 94.6797 105.303 94.4062 105.658C94.1328 106.014 93.7383 106.457 93.2227 106.988L91.2773 108.992V109.062H95.3203V110H89.8125L89.8008 109.227ZM97.582 108.875C97.4492 108.875 97.3242 108.84 97.207 108.77C97.0898 108.699 96.998 108.605 96.9316 108.488C96.8652 108.371 96.832 108.246 96.832 108.113C96.832 107.98 96.8652 107.855 96.9316 107.738C96.998 107.621 97.0898 107.529 97.207 107.463C97.3242 107.396 97.4492 107.363 97.582 107.363C97.7148 107.363 97.8398 107.396 97.957 107.463C98.0742 107.529 98.166 107.621 98.2324 107.738C98.2988 107.855 98.332 107.98 98.332 108.113C98.332 108.246 98.2988 108.371 98.2324 108.488C98.166 108.605 98.0742 108.699 97.957 108.77C97.8398 108.84 97.7148 108.875 97.582 108.875ZM97.582 104.164C97.4492 104.164 97.3242 104.129 97.207 104.059C97.0898 103.988 96.998 103.895 96.9316 103.777C96.8652 103.66 96.832 103.535 96.832 103.402C96.832 103.27 96.8652 103.145 96.9316 103.027C96.998 102.91 97.0898 102.818 97.207 102.752C97.3242 102.686 97.4492 102.652 97.582 102.652C97.7148 102.652 97.8398 102.686 97.957 102.752C98.0742 102.818 98.166 102.91 98.2324 103.027C98.2988 103.145 98.332 103.27 98.332 103.402C98.332 103.535 98.2988 103.66 98.2324 103.777C98.166 103.895 98.0742 103.988 97.957 104.059C97.8398 104.129 97.7148 104.164 97.582 104.164ZM102.832 110.117C102.277 110.117 101.779 110.023 101.338 109.836C100.896 109.648 100.549 109.385 100.295 109.045C100.041 108.705 99.9023 108.312 99.8789 107.867H100.945C100.969 108.125 101.064 108.354 101.232 108.553C101.4 108.752 101.623 108.906 101.9 109.016C102.178 109.125 102.484 109.18 102.82 109.18C103.188 109.18 103.52 109.115 103.816 108.986C104.113 108.857 104.344 108.682 104.508 108.459C104.672 108.236 104.754 107.98 104.754 107.691C104.754 107.379 104.674 107.104 104.514 106.865C104.354 106.627 104.119 106.441 103.811 106.309C103.502 106.176 103.129 106.109 102.691 106.109H102V105.184H102.691C103.035 105.184 103.34 105.123 103.605 105.002C103.871 104.881 104.076 104.711 104.221 104.492C104.365 104.273 104.438 104.02 104.438 103.73C104.438 103.449 104.373 103.201 104.244 102.986C104.115 102.771 103.932 102.605 103.693 102.488C103.455 102.371 103.176 102.312 102.855 102.312C102.551 102.312 102.266 102.367 102 102.477C101.734 102.586 101.518 102.74 101.35 102.939C101.182 103.139 101.09 103.375 101.074 103.648H100.055C100.078 103.211 100.217 102.82 100.471 102.477C100.725 102.133 101.062 101.867 101.484 101.68C101.906 101.492 102.367 101.398 102.867 101.398C103.391 101.398 103.85 101.5 104.244 101.703C104.639 101.906 104.941 102.182 105.152 102.529C105.363 102.877 105.465 103.258 105.457 103.672C105.465 103.984 105.41 104.271 105.293 104.533C105.176 104.795 105.008 105.016 104.789 105.195C104.57 105.375 104.312 105.508 104.016 105.594V105.652C104.383 105.707 104.699 105.828 104.965 106.016C105.23 106.203 105.436 106.439 105.58 106.725C105.725 107.01 105.793 107.332 105.785 107.691C105.793 108.145 105.668 108.557 105.41 108.928C105.152 109.299 104.797 109.59 104.344 109.801C103.891 110.012 103.387 110.117 102.832 110.117ZM107.098 107.398L110.918 101.516H111.551V102.852H111.105L108.234 107.27V107.34H113.402V108.266H107.098V107.398ZM111.211 108.008V107.598V101.516H112.219V110H111.211V108.008Z" fill="#858899"/>
</g>
<g clip-path="url(#clip3_961_5197)">
<rect x="224" y="123" width="132" height="43" rx="21.5" fill="#DDECF9"/>
<path d="M242.469 147.031H241.25V138.891H242.469V147.031ZM242.125 146.672C243.031 146.672 243.872 146.641 244.648 146.578C245.424 146.516 246.229 146.396 247.062 146.219L247.234 147.281C246.37 147.458 245.542 147.581 244.75 147.648C243.958 147.716 243.083 147.75 242.125 147.75H241.25V146.672H242.125ZM252.453 151.266H251.281V137.375H252.453V151.266ZM248.656 143.078H245.141V142.062H248.656V143.078ZM249.484 150.562H248.312V137.719H249.484V150.562ZM255.453 153.203H254.297L255.156 148.953H256.672L255.453 153.203ZM273.359 147.625H272.141V137.375H273.359V147.625ZM275.453 142.641H272.969V141.609H275.453V142.641ZM274 150.969H264.672V149.938H274V150.969ZM265.875 150.344H264.672V146.562H265.875V150.344ZM266.406 138.359C267.094 138.359 267.716 138.505 268.273 138.797C268.831 139.089 269.268 139.492 269.586 140.008C269.904 140.523 270.062 141.115 270.062 141.781C270.062 142.438 269.904 143.026 269.586 143.547C269.268 144.068 268.831 144.474 268.273 144.766C267.716 145.057 267.094 145.203 266.406 145.203C265.719 145.203 265.099 145.057 264.547 144.766C263.995 144.474 263.56 144.068 263.242 143.547C262.924 143.026 262.766 142.438 262.766 141.781C262.766 141.115 262.924 140.523 263.242 140.008C263.56 139.492 263.995 139.089 264.547 138.797C265.099 138.505 265.719 138.359 266.406 138.359ZM266.406 139.438C265.958 139.438 265.547 139.536 265.172 139.734C264.797 139.932 264.503 140.211 264.289 140.57C264.076 140.93 263.969 141.333 263.969 141.781C263.969 142.229 264.076 142.63 264.289 142.984C264.503 143.339 264.797 143.617 265.172 143.82C265.547 144.023 265.958 144.125 266.406 144.125C266.875 144.125 267.294 144.023 267.664 143.82C268.034 143.617 268.326 143.339 268.539 142.984C268.753 142.63 268.859 142.229 268.859 141.781C268.859 141.323 268.753 140.917 268.539 140.562C268.326 140.208 268.034 139.932 267.664 139.734C267.294 139.536 266.875 139.438 266.406 139.438ZM278.406 144.219H277.156V138.234H278.406V144.219ZM278.219 143.922C279.5 143.932 280.604 143.901 281.531 143.828C282.458 143.755 283.396 143.62 284.344 143.422L284.5 144.438C283.51 144.635 282.539 144.773 281.586 144.852C280.633 144.93 279.51 144.964 278.219 144.953H277.156V143.922H278.219ZM287.844 145.906H286.609V137.375H287.844V145.906ZM286.953 140.016H282.625V139.031H286.953V140.016ZM286.953 142.469H282.625V141.5H286.953V142.469ZM283.234 146.016C284.193 146.016 285.023 146.12 285.727 146.328C286.43 146.536 286.966 146.839 287.336 147.234C287.706 147.63 287.891 148.104 287.891 148.656C287.891 149.198 287.706 149.664 287.336 150.055C286.966 150.445 286.432 150.742 285.734 150.945C285.036 151.148 284.203 151.255 283.234 151.266C282.276 151.255 281.448 151.148 280.75 150.945C280.052 150.742 279.516 150.445 279.141 150.055C278.766 149.664 278.578 149.198 278.578 148.656C278.578 148.104 278.766 147.63 279.141 147.234C279.516 146.839 280.052 146.536 280.75 146.328C281.448 146.12 282.276 146.016 283.234 146.016ZM283.234 147C282.536 147 281.927 147.065 281.406 147.195C280.885 147.326 280.487 147.516 280.211 147.766C279.935 148.016 279.797 148.312 279.797 148.656C279.797 148.979 279.935 149.263 280.211 149.508C280.487 149.753 280.885 149.94 281.406 150.07C281.927 150.201 282.536 150.266 283.234 150.266C283.943 150.266 284.555 150.201 285.07 150.07C285.586 149.94 285.982 149.753 286.258 149.508C286.534 149.263 286.672 148.979 286.672 148.656C286.672 148.312 286.534 148.016 286.258 147.766C285.982 147.516 285.586 147.326 285.07 147.195C284.555 147.065 283.943 147 283.234 147ZM300.906 151.266H299.688V137.375H300.906V151.266ZM303.234 144.125H300.625V143.109H303.234V144.125ZM298.344 140.625H290.078V139.609H298.344V140.625ZM294.281 141.781C294.938 141.781 295.523 141.917 296.039 142.188C296.555 142.458 296.958 142.836 297.25 143.32C297.542 143.805 297.688 144.354 297.688 144.969C297.688 145.583 297.542 146.133 297.25 146.617C296.958 147.102 296.555 147.479 296.039 147.75C295.523 148.021 294.938 148.156 294.281 148.156C293.625 148.156 293.039 148.021 292.523 147.75C292.008 147.479 291.604 147.102 291.312 146.617C291.021 146.133 290.875 145.583 290.875 144.969C290.875 144.354 291.021 143.805 291.312 143.32C291.604 142.836 292.008 142.458 292.523 142.188C293.039 141.917 293.625 141.781 294.281 141.781ZM294.281 142.812C293.854 142.812 293.471 142.904 293.133 143.086C292.794 143.268 292.529 143.523 292.336 143.852C292.143 144.18 292.047 144.552 292.047 144.969C292.047 145.385 292.143 145.755 292.336 146.078C292.529 146.401 292.794 146.654 293.133 146.836C293.471 147.018 293.854 147.109 294.281 147.109C294.708 147.109 295.091 147.018 295.43 146.836C295.768 146.654 296.034 146.401 296.227 146.078C296.419 145.755 296.516 145.385 296.516 144.969C296.516 144.552 296.419 144.18 296.227 143.852C296.034 143.523 295.768 143.268 295.43 143.086C295.091 142.904 294.708 142.812 294.281 142.812ZM294.875 140.078H293.656V137.547H294.875V140.078ZM312.234 143.406H309.5V142.359H312.234V143.406ZM307.891 141.375C307.891 142.323 307.758 143.25 307.492 144.156C307.227 145.062 306.846 145.872 306.352 146.586C305.857 147.299 305.276 147.859 304.609 148.266L303.828 147.344C304.453 146.979 305 146.479 305.469 145.844C305.938 145.208 306.297 144.503 306.547 143.727C306.797 142.951 306.922 142.167 306.922 141.375V138.688H307.891V141.375ZM308.109 141.328C308.109 142.068 308.227 142.807 308.461 143.547C308.695 144.286 309.034 144.961 309.477 145.57C309.919 146.18 310.438 146.661 311.031 147.016L310.328 147.969C309.672 147.573 309.107 147.023 308.633 146.32C308.159 145.617 307.797 144.833 307.547 143.969C307.297 143.104 307.172 142.224 307.172 141.328V138.688H308.109V141.328ZM315.891 151.266H314.703V137.375H315.891V151.266ZM313.016 150.562H311.859V137.672H313.016V150.562ZM322.172 148.703H320.969V144.547H322.172V148.703ZM327.375 148.703H326.141V144.547H327.375V148.703ZM330.531 149.484H317.812V148.453H330.531V149.484ZM324.141 138.25C325.13 138.25 326.008 138.398 326.773 138.695C327.539 138.992 328.138 139.411 328.57 139.953C329.003 140.495 329.219 141.12 329.219 141.828C329.219 142.536 329.003 143.159 328.57 143.695C328.138 144.232 327.539 144.648 326.773 144.945C326.008 145.242 325.13 145.391 324.141 145.391C323.161 145.391 322.286 145.242 321.516 144.945C320.745 144.648 320.143 144.232 319.711 143.695C319.279 143.159 319.062 142.536 319.062 141.828C319.062 141.12 319.279 140.495 319.711 139.953C320.143 139.411 320.745 138.992 321.516 138.695C322.286 138.398 323.161 138.25 324.141 138.25ZM324.141 139.266C323.391 139.255 322.721 139.357 322.133 139.57C321.544 139.784 321.083 140.086 320.75 140.477C320.417 140.867 320.25 141.318 320.25 141.828C320.25 142.339 320.417 142.789 320.75 143.18C321.083 143.57 321.544 143.875 322.133 144.094C322.721 144.312 323.391 144.422 324.141 144.422C324.891 144.422 325.56 144.312 326.148 144.094C326.737 143.875 327.198 143.57 327.531 143.18C327.865 142.789 328.031 142.339 328.031 141.828C328.031 141.318 327.865 140.867 327.531 140.477C327.198 140.086 326.737 139.784 326.148 139.57C325.56 139.357 324.891 139.255 324.141 139.266ZM337.125 148.5C336.948 148.5 336.781 148.453 336.625 148.359C336.469 148.266 336.346 148.141 336.258 147.984C336.169 147.828 336.125 147.661 336.125 147.484C336.125 147.307 336.169 147.141 336.258 146.984C336.346 146.828 336.469 146.706 336.625 146.617C336.781 146.529 336.948 146.484 337.125 146.484C337.302 146.484 337.469 146.529 337.625 146.617C337.781 146.706 337.904 146.828 337.992 146.984C338.081 147.141 338.125 147.307 338.125 147.484C338.125 147.661 338.081 147.828 337.992 147.984C337.904 148.141 337.781 148.266 337.625 148.359C337.469 148.453 337.302 148.5 337.125 148.5ZM337.125 142.219C336.948 142.219 336.781 142.172 336.625 142.078C336.469 141.984 336.346 141.859 336.258 141.703C336.169 141.547 336.125 141.38 336.125 141.203C336.125 141.026 336.169 140.859 336.258 140.703C336.346 140.547 336.469 140.424 336.625 140.336C336.781 140.247 336.948 140.203 337.125 140.203C337.302 140.203 337.469 140.247 337.625 140.336C337.781 140.424 337.904 140.547 337.992 140.703C338.081 140.859 338.125 141.026 338.125 141.203C338.125 141.38 338.081 141.547 337.992 141.703C337.904 141.859 337.781 141.984 337.625 142.078C337.469 142.172 337.302 142.219 337.125 142.219ZM342.602 141.641C342.982 142.88 343.177 144.229 343.188 145.688C343.177 147.135 342.982 148.479 342.602 149.719C342.221 150.958 341.667 152.115 340.938 153.188H339.75C340.104 152.667 340.438 151.992 340.75 151.164C341.062 150.336 341.315 149.44 341.508 148.477C341.701 147.513 341.797 146.583 341.797 145.688C341.797 144.792 341.701 143.865 341.508 142.906C341.315 141.948 341.062 141.055 340.75 140.227C340.438 139.398 340.104 138.724 339.75 138.203H340.938C341.667 139.255 342.221 140.401 342.602 141.641Z" fill="black"/>
</g>
<path d="M329.551 181H328.484V173.617H328.438L326.375 174.988V173.922L328.484 172.516H329.551V181ZM331.801 180.227L334.695 177.18C335.078 176.773 335.371 176.447 335.574 176.201C335.777 175.955 335.93 175.715 336.031 175.48C336.133 175.246 336.184 175.004 336.184 174.754C336.184 174.473 336.109 174.223 335.961 174.004C335.812 173.785 335.611 173.615 335.357 173.494C335.104 173.373 334.816 173.312 334.496 173.312C334.168 173.312 333.879 173.379 333.629 173.512C333.379 173.645 333.186 173.832 333.049 174.074C332.912 174.316 332.844 174.594 332.844 174.906H331.848C331.848 174.414 331.963 173.979 332.193 173.6C332.424 173.221 332.744 172.926 333.154 172.715C333.564 172.504 334.023 172.398 334.531 172.398C335.039 172.398 335.492 172.502 335.891 172.709C336.289 172.916 336.602 173.199 336.828 173.559C337.055 173.918 337.168 174.316 337.168 174.754C337.168 175.074 337.109 175.383 336.992 175.68C336.875 175.977 336.68 176.303 336.406 176.658C336.133 177.014 335.738 177.457 335.223 177.988L333.277 179.992V180.062H337.32V181H331.812L331.801 180.227ZM339.582 179.875C339.449 179.875 339.324 179.84 339.207 179.77C339.09 179.699 338.998 179.605 338.932 179.488C338.865 179.371 338.832 179.246 338.832 179.113C338.832 178.98 338.865 178.855 338.932 178.738C338.998 178.621 339.09 178.529 339.207 178.463C339.324 178.396 339.449 178.363 339.582 178.363C339.715 178.363 339.84 178.396 339.957 178.463C340.074 178.529 340.166 178.621 340.232 178.738C340.299 178.855 340.332 178.98 340.332 179.113C340.332 179.246 340.299 179.371 340.232 179.488C340.166 179.605 340.074 179.699 339.957 179.77C339.84 179.84 339.715 179.875 339.582 179.875ZM339.582 175.164C339.449 175.164 339.324 175.129 339.207 175.059C339.09 174.988 338.998 174.895 338.932 174.777C338.865 174.66 338.832 174.535 338.832 174.402C338.832 174.27 338.865 174.145 338.932 174.027C338.998 173.91 339.09 173.818 339.207 173.752C339.324 173.686 339.449 173.652 339.582 173.652C339.715 173.652 339.84 173.686 339.957 173.752C340.074 173.818 340.166 173.91 340.232 174.027C340.299 174.145 340.332 174.27 340.332 174.402C340.332 174.535 340.299 174.66 340.232 174.777C340.166 174.895 340.074 174.988 339.957 175.059C339.84 175.129 339.715 175.164 339.582 175.164ZM344.832 181.117C344.277 181.117 343.779 181.023 343.338 180.836C342.896 180.648 342.549 180.385 342.295 180.045C342.041 179.705 341.902 179.312 341.879 178.867H342.945C342.969 179.125 343.064 179.354 343.232 179.553C343.4 179.752 343.623 179.906 343.9 180.016C344.178 180.125 344.484 180.18 344.82 180.18C345.188 180.18 345.52 180.115 345.816 179.986C346.113 179.857 346.344 179.682 346.508 179.459C346.672 179.236 346.754 178.98 346.754 178.691C346.754 178.379 346.674 178.104 346.514 177.865C346.354 177.627 346.119 177.441 345.811 177.309C345.502 177.176 345.129 177.109 344.691 177.109H344V176.184H344.691C345.035 176.184 345.34 176.123 345.605 176.002C345.871 175.881 346.076 175.711 346.221 175.492C346.365 175.273 346.438 175.02 346.438 174.73C346.438 174.449 346.373 174.201 346.244 173.986C346.115 173.771 345.932 173.605 345.693 173.488C345.455 173.371 345.176 173.312 344.855 173.312C344.551 173.312 344.266 173.367 344 173.477C343.734 173.586 343.518 173.74 343.35 173.939C343.182 174.139 343.09 174.375 343.074 174.648H342.055C342.078 174.211 342.217 173.82 342.471 173.477C342.725 173.133 343.062 172.867 343.484 172.68C343.906 172.492 344.367 172.398 344.867 172.398C345.391 172.398 345.85 172.5 346.244 172.703C346.639 172.906 346.941 173.182 347.152 173.529C347.363 173.877 347.465 174.258 347.457 174.672C347.465 174.984 347.41 175.271 347.293 175.533C347.176 175.795 347.008 176.016 346.789 176.195C346.57 176.375 346.312 176.508 346.016 176.594V176.652C346.383 176.707 346.699 176.828 346.965 177.016C347.23 177.203 347.436 177.439 347.58 177.725C347.725 178.01 347.793 178.332 347.785 178.691C347.793 179.145 347.668 179.557 347.41 179.928C347.152 180.299 346.797 180.59 346.344 180.801C345.891 181.012 345.387 181.117 344.832 181.117ZM349.098 178.398L352.918 172.516H353.551V173.852H353.105L350.234 178.27V178.34H355.402V179.266H349.098V178.398ZM353.211 179.008V178.598V172.516H354.219V181H353.211V179.008Z" fill="#858899"/>
<rect width="349" height="60" transform="translate(23 205)" fill="white"/>
<rect x="31" y="213" width="333" height="44" rx="22" fill="#F6F7F8"/>
<path d="M56 232.062H53.5938V231.031H56V232.062ZM49.0938 234.125C50.2604 234.125 51.2083 234.099 51.9375 234.047C52.6667 233.995 53.401 233.896 54.1406 233.75L54.2656 234.766C53.5052 234.911 52.7578 235.008 52.0234 235.055C51.2891 235.102 50.3125 235.125 49.0938 235.125H48.2188V234.125H49.0938ZM53.5156 229.375H49.3906V234.562H48.2188V228.375H53.5156V229.375ZM52.9375 232.172H49.0156V231.188H52.9375V232.172ZM59.3594 241.266H58.1562V237.641H49.9375V236.625H59.3594V241.266ZM59.3594 235.969H58.1875V227.391H59.3594V235.969ZM56.6562 235.875H55.4688V227.688H56.6562V235.875ZM68.1094 229.422C68.1094 230.38 67.8385 231.276 67.2969 232.109C66.7552 232.943 66.0547 233.646 65.1953 234.219C64.3359 234.792 63.4323 235.188 62.4844 235.406L61.9219 234.375C62.7448 234.208 63.5521 233.883 64.3438 233.398C65.1354 232.914 65.7812 232.32 66.2812 231.617C66.7812 230.914 67.0312 230.182 67.0312 229.422V228.359H68.1094V229.422ZM68.3125 229.422C68.3125 230.172 68.5677 230.901 69.0781 231.609C69.5885 232.318 70.2422 232.917 71.0391 233.406C71.8359 233.896 72.6406 234.219 73.4531 234.375L72.8906 235.406C71.9531 235.188 71.0547 234.794 70.1953 234.227C69.3359 233.659 68.6328 232.956 68.0859 232.117C67.5391 231.279 67.2656 230.38 67.2656 229.422V228.359H68.3125V229.422ZM74.1094 239.375H61.3906V238.359H74.1094V239.375ZM86.4688 235.891H76.8594V234.891H86.4688V235.891ZM87.9375 239.453H75.2188V238.438H87.9375V239.453ZM86.3125 229.609H78.1094V235.188H76.8594V228.578H86.3125V229.609ZM86.0156 232.656H77.7188V231.672H86.0156V232.656ZM104.531 234.828H103.312V227.375H104.531V234.828ZM96.75 237.219H103.312V235.531H104.531V241.078H95.5312V235.531H96.75V237.219ZM103.312 240.078V238.203H96.75V240.078H103.312ZM97.0312 228.062C97.7292 228.052 98.3542 228.18 98.9062 228.445C99.4583 228.711 99.8906 229.089 100.203 229.578C100.516 230.068 100.672 230.625 100.672 231.25C100.672 231.865 100.516 232.414 100.203 232.898C99.8906 233.383 99.4583 233.76 98.9062 234.031C98.3542 234.302 97.7292 234.438 97.0312 234.438C96.3333 234.438 95.7083 234.302 95.1562 234.031C94.6042 233.76 94.1719 233.383 93.8594 232.898C93.5469 232.414 93.3906 231.865 93.3906 231.25C93.3906 230.625 93.5469 230.068 93.8594 229.578C94.1719 229.089 94.6042 228.711 95.1562 228.445C95.7083 228.18 96.3333 228.052 97.0312 228.062ZM97.0312 229.094C96.5625 229.083 96.1432 229.172 95.7734 229.359C95.4036 229.547 95.1146 229.805 94.9062 230.133C94.6979 230.461 94.5938 230.833 94.5938 231.25C94.5938 231.667 94.6979 232.039 94.9062 232.367C95.1146 232.695 95.4036 232.953 95.7734 233.141C96.1432 233.328 96.5625 233.422 97.0312 233.422C97.5 233.422 97.9193 233.328 98.2891 233.141C98.6589 232.953 98.9479 232.695 99.1562 232.367C99.3646 232.039 99.4688 231.667 99.4688 231.25C99.4688 230.833 99.3646 230.461 99.1562 230.133C98.9479 229.805 98.6589 229.547 98.2891 229.359C97.9193 229.172 97.5 229.083 97.0312 229.094ZM108.469 234.281C109.979 234.281 111.13 234.26 111.922 234.219C112.714 234.177 113.505 234.083 114.297 233.938L114.422 234.953C113.599 235.089 112.773 235.177 111.945 235.219C111.117 235.26 109.958 235.281 108.469 235.281H107.484V234.281H108.469ZM113.484 232.125H108.703V234.875H107.484V231.188H112.266V229.219H107.453V228.234H113.484V232.125ZM118.406 235.922H117.172V227.391H118.406V235.922ZM117.469 230.453H114.406V229.453H117.469V230.453ZM117.469 233.344H114.406V232.328H117.469V233.344ZM118.406 241.297H117.172V237.672H109.047V236.672H118.406V241.297Z" fill="black"/>
<rect x="324" y="217" width="36" height="36" rx="18" fill="#117CE9"/>
<path d="M334.833 242L349.375 235.767C350.05 235.475 350.05 234.525 349.375 234.233L334.833 228C334.283 227.758 333.675 228.167 333.675 228.758L333.667 232.6C333.667 233.017 333.975 233.375 334.392 233.425L346.167 235L334.392 236.567C333.975 236.625 333.667 236.983 333.667 237.4L333.675 241.242C333.675 241.833 334.283 242.242 334.833 242Z" fill="white"/>
</g>
<rect x="23.5" y="22.5" width="348" height="242" rx="19.5" stroke="#F6F7F8"/>
</g>
<defs>
<filter id="filter0_d_961_5197" x="0" y="0" width="395" height="289" filterUnits="userSpaceOnUse" color-interpolation-filters="sRGB">
<feFlood flood-opacity="0" result="BackgroundImageFix"/>
<feColorMatrix in="SourceAlpha" type="matrix" values="0 0 0 0 0 0 0 0 0 0 0 0 0 0 0 0 0 0 127 0" result="hardAlpha"/>
<feOffset dy="1"/>
<feGaussianBlur stdDeviation="11.5"/>
<feComposite in2="hardAlpha" operator="out"/>
<feColorMatrix type="matrix" values="0 0 0 0 0 0 0 0 0 0 0 0 0 0 0 0 0 0 0.05 0"/>
<feBlend mode="normal" in2="BackgroundImageFix" result="effect1_dropShadow_961_5197"/>
<feBlend mode="normal" in="SourceGraphic" in2="effect1_dropShadow_961_5197" result="shape"/>
</filter>
<clipPath id="clip0_961_5197">
<rect x="23" y="22" width="349" height="243" rx="20" fill="white"/>
</clipPath>
<clipPath id="clip1_961_5197">
<rect width="317" height="77" fill="white" transform="translate(39 34)"/>
</clipPath>
<clipPath id="clip2_961_5197">
<rect x="83" y="34" width="147" height="61" rx="24" fill="white"/>
</clipPath>
<clipPath id="clip3_961_5197">
<rect x="224" y="123" width="132" height="43" rx="21.5" fill="white"/>
</clipPath>
</defs>
</svg>
